<?xml version="1.0" encoding="UTF-8"?>
<svg width="100px" height="100px" viewBox="0 0 100 100" version="1.1" xmlns="http://www.w3.org/2000/svg" xmlns:xlink="http://www.w3.org/1999/xlink">
    <!-- Generator: Sketch 53.2 (72643) - https://sketchapp.com -->
    <title>检查记录表</title>
    <desc>Created with Sketch.</desc>
    <g id="Page-1" stroke="none" stroke-width="1" fill="none" fill-rule="evenodd">
        <g id="Artboard" transform="translate(-452.000000, -722.000000)" fill-rule="nonzero">
            <g id="检查记录表" transform="translate(438.000000, 708.000000)">
                <rect id="Rectangle" fill="#000000" opacity="0" x="0" y="0" width="128" height="128"></rect>
                <path d="M110,23 L89,23 L89,15 C89,14.45 88.55,14 88,14 L81,14 C80.45,14 80,14.45 80,15 L80,23 L48,23 L48,15 C48,14.45 47.55,14 47,14 L40,14 C39.45,14 39,14.45 39,15 L39,23 L18,23 C15.7875,23 14,24.7875 14,27 L14,110 C14,112.2125 15.7875,114 18,114 L110,114 C112.2125,114 114,112.2125 114,110 L114,27 C114,24.7875 112.2125,23 110,23 Z M105,105 L23,105 L23,32 L39,32 L39,38 C39,38.55 39.45,39 40,39 L47,39 C47.55,39 48,38.55 48,38 L48,32 L80,32 L80,38 C80,38.55 80.45,39 81,39 L88,39 C88.55,39 89,38.55 89,38 L89,32 L105,32 L105,105 Z M86,52.5 L79.1,52.5 C78.4625,52.5 77.85,52.8125 77.475,53.325 L58.6125,79.3 L50.525,68.175 C50.15,67.6625 49.55,67.35 48.9,67.35 L42,67.35 C41.1875,67.35 40.7125,68.275 41.1875,68.9375 L56.9875,90.6875 C57.7875,91.7875 59.4375,91.7875 60.2375,90.6875 L86.8125,54.1 C87.2875,53.425 86.8125,52.5 86,52.5 Z" id="Shape" fill="#FFFFFF"></path>
            </g>
        </g>
    </g>
</svg>