<?xml version="1.0" encoding="UTF-8"?>
<svg width="100px" height="100px" viewBox="0 0 100 100" version="1.1" xmlns="http://www.w3.org/2000/svg" xmlns:xlink="http://www.w3.org/1999/xlink">
    <!-- Generator: Sketch 53.2 (72643) - https://sketchapp.com -->
    <title>特检抽查</title>
    <desc>Created with Sketch.</desc>
    <g id="Page-1" stroke="none" stroke-width="1" fill="none" fill-rule="evenodd">
        <g id="Artboard" transform="translate(-452.000000, -979.000000)" fill-rule="nonzero">
            <g id="特检抽查" transform="translate(438.000000, 965.000000)">
                <rect id="Rectangle" fill="#000000" opacity="0" x="0" y="0" width="128" height="128"></rect>
                <path d="M84.5,70.625 C78.15,70.625 73,75.775 73,82.125 C73,88.475 78.15,93.625 84.5,93.625 C90.85,93.625 96,88.475 96,82.125 C96,75.775 90.85,70.625 84.5,70.625 Z M84.5,86.375 C82.15,86.375 80.25,84.475 80.25,82.125 C80.25,79.775 82.15,77.875 84.5,77.875 C86.85,77.875 88.75,79.775 88.75,82.125 C88.75,84.475 86.85,86.375 84.5,86.375 Z M110,21 L83.5,21 C83.5,17.1375 80.3625,14 76.5,14 L66.5,14 C62.6375,14 59.5,17.1375 59.5,21 L33,21 C30.7875,21 29,22.7875 29,25 L29,50 L18,50 C15.7875,50 14,51.7875 14,54 L14,110 C14,112.2125 15.7875,114 18,114 L60,114 C62.2125,114 64,112.2125 64,110 L64,108 L110,108 C112.2125,108 114,106.2125 114,104 L114,25 C114,22.7875 112.2125,21 110,21 Z M58.5,29 L67.5,29 L67.5,22 L75.5,22 L75.5,29 L84.5,29 L84.5,35 L58.5,35 L58.5,29 Z M56,106 L22,106 L22,77 L56,77 L56,106 Z M56,69 L22,69 L22,58 L56,58 L56,69 Z M105,99 L64,99 L64,54 C64,51.7875 62.2125,50 60,50 L38,50 L38,30 L50.5,30 L50.5,43 L92.5,43 L92.5,30 L105,30 L105,99 Z M88,51 L88,63 C88,63.55 88.45,64 89,64 L95,64 C95.55,64 96,63.55 96,63 L96,51 C96,50.45 95.55,50 95,50 L89,50 C88.45,50 88,50.45 88,51 Z M74,64 L80,64 C80.55,64 81,63.55 81,63 L81,56 C81,55.45 80.55,55 80,55 L74,55 C73.45,55 73,55.45 73,56 L73,63 C73,63.55 73.45,64 74,64 Z" id="Shape" fill="#FFFFFF"></path>
            </g>
        </g>
    </g>
</svg>