<?xml version="1.0" encoding="UTF-8"?>
<svg width="114px" height="108px" viewBox="0 0 114 108" version="1.1" xmlns="http://www.w3.org/2000/svg" xmlns:xlink="http://www.w3.org/1999/xlink">
    <!-- Generator: Sketch 53.2 (72643) - https://sketchapp.com -->
    <title>扶뒬못</title>
    <desc>Created with Sketch.</desc>
    <g id="Page-1" stroke="none" stroke-width="1" fill="none" fill-rule="evenodd">
        <g id="Artboard" transform="translate(-445.000000, -107.000000)" fill-rule="nonzero">
            <g id="扶뒬못" transform="translate(438.000000, 97.000000)">
                <rect id="Rectangle" opacity="0" x="0" y="0" width="128" height="128"></rect>
                <path d="M118.3125,63.125 L70.0125,14.85 L66.775,11.6125 C65.2375,10.0875 62.7625,10.0875 61.225,11.6125 L9.6875,63.125 C8.15,64.6625 7.325,66.7 7.3375,68.875 C7.3875,73.275 11.05,76.7875 15.45,76.7875 L20.7625,76.7875 L20.7625,117.5 L107.2375,117.5 L107.2375,76.7875 L112.6625,76.7875 C114.8,76.7875 116.8125,75.95 118.325,74.4375 C119.8375,72.925 120.6625,70.9125 120.6625,68.775 C120.6625,66.65 119.825,64.6375 118.3125,63.125 Z M71,108.5 L57,108.5 L57,83 L71,83 L71,108.5 Z M98.2375,67.7875 L98.2375,108.5 L79,108.5 L79,80 C79,77.2375 76.7625,75 74,75 L54,75 C51.2375,75 49,77.2375 49,80 L49,108.5 L29.7625,108.5 L29.7625,67.7875 L17.7625,67.7875 L64.0125,21.575 L66.9,24.4625 L110.25,67.7875 L98.2375,67.7875 Z" id="Shape" fill="#EEEFF4"></path>
            </g>
        </g>
    </g>
</svg>