<?xml version="1.0" encoding="UTF-8"?>
<svg width="106px" height="113px" viewBox="0 0 106 113" version="1.1" xmlns="http://www.w3.org/2000/svg" xmlns:xlink="http://www.w3.org/1999/xlink">
    <!-- Generator: Sketch 53.2 (72643) - https://sketchapp.com -->
    <title>后台管理</title>
    <desc>Created with Sketch.</desc>
    <g id="Page-1" stroke="none" stroke-width="1" fill="none" fill-rule="evenodd">
        <g id="Artboard" transform="translate(-449.000000, -1121.000000)" fill-rule="nonzero">
            <g id="后台管理" transform="translate(438.000000, 1114.000000)">
                <rect id="Rectangle" fill="#000000" opacity="0" x="0" y="0" width="128" height="128"></rect>
                <path d="M115.6,78.2125 L107.4125,71.2125 C107.8,68.8375 108,66.4125 108,63.9875 C108,61.5625 107.8,59.1375 107.4125,56.7625 L115.6,49.7625 C116.8625,48.6875 117.325,46.9375 116.7625,45.3625 L116.65,45.0375 C114.3875,38.725 111.0375,32.925 106.6875,27.8 L106.4625,27.5375 C105.3875,26.275 103.65,25.8 102.075,26.35 L91.9125,29.9625 C88.1625,26.8875 83.975,24.4625 79.45,22.7625 L77.4875,12.1375 C77.1875,10.5 75.9,9.225 74.2625,8.925 L73.925,8.8625 C67.4125,7.6875 60.5625,7.6875 54.05,8.8625 L53.7125,8.925 C52.075,9.225 50.7875,10.5 50.4875,12.1375 L48.5125,22.8125 C44.025,24.5125 39.8625,26.925 36.1375,29.9875 L25.9,26.35 C24.3375,25.8 22.5875,26.2625 21.5125,27.5375 L21.2875,27.8 C16.9375,32.9375 13.5875,38.7375 11.325,45.0375 L11.2125,45.3625 C10.65,46.925 11.1125,48.675 12.375,49.7625 L20.6625,56.8375 C20.275,59.1875 20.0875,61.5875 20.0875,63.975 C20.0875,66.375 20.275,68.775 20.6625,71.1125 L12.375,78.1875 C11.1125,79.2625 10.65,81.0125 11.2125,82.5875 L11.325,82.9125 C13.5875,89.2125 16.9375,95.025 21.2875,100.15 L21.5125,100.4125 C22.5875,101.675 24.325,102.15 25.9,101.6 L36.1375,97.9625 C39.8625,101.025 44.025,103.45 48.5125,105.1375 L50.4875,115.8125 C50.7875,117.45 52.075,118.725 53.7125,119.025 L54.05,119.0875 C57.3125,119.675 60.65,119.975 63.9875,119.975 C67.325,119.975 70.675,119.675 73.925,119.0875 L74.2625,119.025 C75.9,118.725 77.1875,117.45 77.4875,115.8125 L79.45,105.1875 C83.975,103.4875 88.1625,101.075 91.9125,97.9875 L102.075,101.6 C103.6375,102.15 105.3875,101.6875 106.4625,100.4125 L106.6875,100.15 C111.0375,95.0125 114.3875,89.2125 116.65,82.9125 L116.7625,82.5875 C117.325,81.05 116.8625,79.3 115.6,78.2125 L115.6,78.2125 Z M98.5375,58.2375 C98.85,60.125 99.0125,62.0625 99.0125,64 C99.0125,65.9375 98.85,67.875 98.5375,69.7625 L97.7125,74.775 L107.05,82.7625 C105.6375,86.025 103.85,89.1 101.725,91.9625 L90.125,87.85 L86.2,91.075 C83.2125,93.525 79.8875,95.45 76.2875,96.8 L71.525,98.5875 L69.2875,110.7125 C65.775,111.1125 62.1875,111.1125 58.6625,110.7125 L56.425,98.5625 L51.7,96.75 C48.1375,95.4 44.825,93.475 41.8625,91.0375 L37.9375,87.8 L26.2625,91.95 C24.1375,89.0875 22.3625,86 20.9375,82.75 L30.375,74.6875 L29.5625,69.6875 C29.2625,67.825 29.1,65.9 29.1,64 C29.1,62.0875 29.25,60.175 29.5625,58.3125 L30.375,53.3125 L20.9375,45.25 C22.35,41.9875 24.1375,38.9125 26.2625,36.05 L37.9375,40.2 L41.8625,36.9625 C44.825,34.525 48.1375,32.6 51.7,31.25 L56.4375,29.4625 L58.675,17.3125 C62.1875,16.9125 65.775,16.9125 69.3,17.3125 L71.5375,29.4375 L76.3,31.225 C79.8875,32.575 83.225,34.5 86.2125,36.95 L90.1375,40.175 L101.7375,36.0625 C103.8625,38.925 105.6375,42.0125 107.0625,45.2625 L97.725,53.25 L98.5375,58.2375 Z M64,40.75 C51.85,40.75 42,50.6 42,62.75 C42,74.9 51.85,84.75 64,84.75 C76.15,84.75 86,74.9 86,62.75 C86,50.6 76.15,40.75 64,40.75 Z M73.9,72.65 C71.25,75.2875 67.7375,76.75 64,76.75 C60.2625,76.75 56.75,75.2875 54.1,72.65 C51.4625,70 50,66.4875 50,62.75 C50,59.0125 51.4625,55.5 54.1,52.85 C56.75,50.2 60.2625,48.75 64,48.75 C67.7375,48.75 71.25,50.2 73.9,52.85 C76.5375,55.5 78,59.0125 78,62.75 C78,66.4875 76.5375,70 73.9,72.65 Z" id="Shape" fill="#FFFFFF"></path>
            </g>
        </g>
    </g>
</svg>