<?xml version="1.0" encoding="UTF-8"?>
<svg width="88px" height="112px" viewBox="0 0 88 112" version="1.1" xmlns="http://www.w3.org/2000/svg" xmlns:xlink="http://www.w3.org/1999/xlink">
    <!-- Generator: Sketch 53.2 (72643) - https://sketchapp.com -->
    <title>任务</title>
    <desc>Created with Sketch.</desc>
    <g id="Page-1" stroke="none" stroke-width="1" fill="none" fill-rule="evenodd">
        <g id="Artboard" transform="translate(-453.000000, -409.000000)" fill-rule="nonzero">
            <g id="任务" transform="translate(433.000000, 401.000000)">
                <rect id="Rectangle" fill="#000000" opacity="0" x="0" y="0" width="128" height="128"></rect>
                <path d="M104,14 L90.5,14 L90.5,9 C90.5,8.45 90.05,8 89.5,8 L82.5,8 C81.95,8 81.5,8.45 81.5,9 L81.5,14 L62.5,14 L62.5,9 C62.5,8.45 62.05,8 61.5,8 L54.5,8 C53.95,8 53.5,8.45 53.5,9 L53.5,14 L40,14 C37.7875,14 36,15.7875 36,18 L36,33 L24,33 C21.7875,33 20,34.7875 20,37 L20,116 C20,118.2125 21.7875,120 24,120 L88,120 C90.2125,120 92,118.2125 92,116 L92,104 L104,104 C106.2125,104 108,102.2125 108,100 L108,18 C108,15.7875 106.2125,14 104,14 Z M83,111 L29,111 L29,42 L56.25,42 L56.25,63.75 C56.25,66.5125 58.4875,68.75 61.25,68.75 L83,68.75 L83,111 Z M83,60.75 L64.25,60.75 L64.25,42 L64.275,42 L83,60.725 L83,60.75 Z M99,95 L92,95 L92,57 L68,33 L45,33 L45,23 L53.5,23 L53.5,27 C53.5,27.55 53.95,28 54.5,28 L61.5,28 C62.05,28 62.5,27.55 62.5,27 L62.5,23 L81.5,23 L81.5,27 C81.5,27.55 81.95,28 82.5,28 L89.5,28 C90.05,28 90.5,27.55 90.5,27 L90.5,23 L99,23 L99,95 Z" id="Shape" fill="#FFFFFF"></path>
            </g>
        </g>
    </g>
</svg>