<?xml version="1.0" encoding="UTF-8"?>
<svg width="100px" height="100px" viewBox="0 0 100 100" version="1.1" xmlns="http://www.w3.org/2000/svg" xmlns:xlink="http://www.w3.org/1999/xlink">
    <!-- Generator: Sketch 53.2 (72643) - https://sketchapp.com -->
    <title>设备管理</title>
    <desc>Created with Sketch.</desc>
    <g id="Page-1" stroke="none" stroke-width="1" fill="none" fill-rule="evenodd">
        <g id="Artboard" transform="translate(-452.000000, -269.000000)" fill-rule="nonzero">
            <g id="设备管理" transform="translate(438.000000, 255.000000)">
                <rect id="Rectangle" fill="#000000" opacity="0" x="0" y="0" width="128" height="128"></rect>
                <path d="M109.575,29.9375 C109.5125,29.825 109.425,29.7125 109.325,29.625 C108.7,29 107.6875,29 107.0625,29.625 L85.525,51.1625 L77.0375,42.675 L98.5875,21.125 C98.6875,21.025 98.7625,20.925 98.8375,20.8125 C99.2875,20.05 99.0375,19.075 98.275,18.625 C86,11.375 69.925,13.0375 59.3625,23.5875 C50.9875,31.9625 48.2125,43.8375 51.05,54.5125 L14.425,91.1375 C14.05,91.5125 14.075,92.125 14.4625,92.5125 L35.675,113.725 C36.0625,114.1125 36.6875,114.1375 37.05,113.7625 L73.6625,77.15 C84.35,80 96.225,77.2375 104.6125,68.85 C115.1625,58.2875 116.825,42.2125 109.575,29.9375 Z M98.25,62.475 C90.9875,69.7375 80.0875,71.1375 71.425,66.675 L70.325,67.775 L70.3125,67.7625 L36.0625,102.025 L26.1625,92.125 L54.925,63.3625 C54.925,63.3625 54.925,63.375 54.9375,63.375 L61.5375,56.775 C57.075,48.1125 58.475,37.2125 65.7375,29.95 C70.6375,25.05 77.25,22.7875 83.7375,23.2625 L67.125,39.8625 C65.5625,41.425 65.5625,43.9625 67.125,45.525 L82.6875,61.0875 C84.25,62.65 86.7875,62.65 88.35,61.0875 L104.95,44.4875 C105.4125,50.9625 103.15,57.5875 98.25,62.475 Z" id="Shape" fill="#FFFFFF"></path>
            </g>
        </g>
    </g>
</svg>