<?xml version="1.0" encoding="UTF-8"?>
<svg width="100px" height="100px" viewBox="0 0 100 100" version="1.1" xmlns="http://www.w3.org/2000/svg" xmlns:xlink="http://www.w3.org/1999/xlink">
    <!-- Generator: Sketch 53.2 (72643) - https://sketchapp.com -->
    <title>省局数据查询</title>
    <desc>Created with Sketch.</desc>
    <g id="Page-1" stroke="none" stroke-width="1" fill="none" fill-rule="evenodd">
        <g id="Artboard" transform="translate(-447.000000, -842.000000)" fill-rule="nonzero">
            <g id="省局数据查询" transform="translate(433.000000, 828.000000)">
                <rect id="Rectangle" fill="#000000" opacity="0" x="0" y="0" width="128" height="128"></rect>
                <path d="M86.6,51.5875 L86.625,51.5625 L82.3,46.025 C81.9625,45.5875 81.3375,45.5125 80.9,45.85 L74.6,50.7625 L65.7875,39.5 C65.45,39.0625 64.825,38.9875 64.3875,39.325 L59.65,43.0375 C59.2125,43.375 59.1375,44 59.475,44.4375 L68.2875,55.7125 L68.2625,55.725 L72.5875,61.2625 C72.925,61.7 73.55,61.775 73.9875,61.4375 L80.2875,56.525 L88.3,66.775 C88.6375,67.2125 89.2625,67.2875 89.7,66.95 L94.4375,63.25 C94.875,62.9125 94.95,62.2875 94.6125,61.85 L86.6,51.5875 L86.6,51.5875 Z M76,14 C55.0125,14 38,31.0125 38,52 C38,60.7875 40.9875,68.875 45.9875,75.3125 L14.2875,107.0125 C13.9,107.4 13.9,108.0375 14.2875,108.425 L19.575,113.7125 C19.9625,114.1 20.6,114.1 20.9875,113.7125 L52.6875,82.0125 C59.125,87.0125 67.2125,90 76,90 C96.9875,90 114,72.9875 114,52 C114,31.0125 96.9875,14 76,14 Z M96.15,72.15 C90.775,77.5375 83.6125,80.5 76,80.5 C68.3875,80.5 61.225,77.5375 55.85,72.15 C50.4625,66.775 47.5,59.6125 47.5,52 C47.5,44.3875 50.4625,37.225 55.85,31.85 C61.225,26.4625 68.3875,23.5 76,23.5 C83.6125,23.5 90.775,26.4625 96.15,31.85 C101.5375,37.225 104.5,44.3875 104.5,52 C104.5,59.6125 101.5375,66.775 96.15,72.15 Z" id="Shape" fill="#FFFFFF"></path>
            </g>
        </g>
    </g>
</svg>