<?xml version="1.0" encoding="UTF-8"?>
<svg width="94px" height="110px" viewBox="0 0 94 110" version="1.1" xmlns="http://www.w3.org/2000/svg" xmlns:xlink="http://www.w3.org/1999/xlink">
    <!-- Generator: Sketch 53.2 (72643) - https://sketchapp.com -->
    <title>指令书移交</title>
    <desc>Created with Sketch.</desc>
    <g id="Page-1" stroke="none" stroke-width="1" fill="none" fill-rule="evenodd">
        <g id="Artboard" transform="translate(-455.000000, -568.000000)" fill-rule="nonzero">
            <g id="指令书移交" transform="translate(438.000000, 559.000000)">
                <rect id="Rectangle" fill="#000000" opacity="0" x="0" y="0" width="128" height="128"></rect>
                <path d="M37,31.25 C36.45,31.25 36,31.7 36,32.25 L36,38.25 C36,38.8 36.45,39.25 37,39.25 L85,39.25 C85.55,39.25 86,38.8 86,38.25 L86,32.25 C86,31.7 85.55,31.25 85,31.25 L37,31.25 Z M60,49.25 L37,49.25 C36.45,49.25 36,49.7 36,50.25 L36,56.25 C36,56.8 36.45,57.25 37,57.25 L60,57.25 C60.55,57.25 61,56.8 61,56.25 L61,50.25 C61,49.7 60.55,49.25 60,49.25 Z M54,106.5 L26,106.5 L26,18.5 L96,18.5 L96,58.5 C96,59.05 96.45,59.5 97,59.5 L104,59.5 C104.55,59.5 105,59.05 105,58.5 L105,13.5 C105,11.2875 103.2125,9.5 101,9.5 L21,9.5 C18.7875,9.5 17,11.2875 17,13.5 L17,111.5 C17,113.7125 18.7875,115.5 21,115.5 L54,115.5 C54.55,115.5 55,115.05 55,114.5 L55,107.5 C55,106.95 54.55,106.5 54,106.5 Z M109,95.5 L91,95.5 L91,90.925 C96.7875,89.2 101,83.85 101,77.5 C101,69.7625 94.7375,63.5 87,63.5 C79.2625,63.5 73,69.7625 73,77.5 C73,83.8375 77.2125,89.2 83,90.925 L83,95.5 L65,95.5 C63.9,95.5 63,96.4 63,97.5 L63,116.5 C63,117.6 63.9,118.5 65,118.5 L109,118.5 C110.1,118.5 111,117.6 111,116.5 L111,97.5 C111,96.4 110.1,95.5 109,95.5 Z M80.75,77.5 C80.75,74.05 83.55,71.25 87,71.25 C90.45,71.25 93.25,74.05 93.25,77.5 C93.25,80.95 90.45,83.75 87,83.75 C83.55,83.75 80.75,80.95 80.75,77.5 Z M103.25,110.75 L70.75,110.75 L70.75,103.25 L103.25,103.25 L103.25,110.75 Z" id="Shape" fill="#FFFFFF"></path>
            </g>
        </g>
    </g>
</svg>