<svg xmlns="http://www.w3.org/2000/svg" xmlns:xlink="http://www.w3.org/1999/xlink" id="body_1" preserveAspectRatio="xMinYMin meet" viewBox="0 0 793 1121"><defs><clipPath id="1"><path id="" clip-rule="evenodd" transform="matrix(1 0 0 1 0 0)" d="M0 841L0 -0.9199829L0 -0.9199829L595.2 -0.9199829L595.2 -0.9199829L595.2 841L595.2 841L0 841z" /></clipPath><clipPath id="2"><path id="" clip-rule="evenodd" transform="matrix(1 0 0 1 0 0)" d="M51.864 735.14L543.814 735.14L543.814 735.14L543.814 79.03003L543.814 79.03003L51.864 79.03003z" /></clipPath><clipPath id="3"><path id="" clip-rule="evenodd" transform="matrix(1 0 0 1 0 0)" d="M61.464 141.45L533.974 141.45L533.974 141.45L533.974 79.026L533.974 79.026L61.464 79.026z" /></clipPath><clipPath id="4"><path id="" clip-rule="evenodd" transform="matrix(1 0 0 1 0 0)" d="M61.464 141.45L533.974 141.45L533.974 141.45L533.974 79.026L533.974 79.026L61.464 79.026z" /></clipPath><clipPath id="5"><path id="" clip-rule="evenodd" transform="matrix(1 0 0 1 0 0)" d="M61.464 141.45L533.974 141.45L533.974 141.45L533.974 79.026L533.974 79.026L61.464 79.026z" /></clipPath><clipPath id="6"><path id="" clip-rule="evenodd" transform="matrix(1 0 0 1 0 0)" d="M51.864 735.14L543.814 735.14L543.814 735.14L543.814 79.03003L543.814 79.03003L51.864 79.03003z" /></clipPath><clipPath id="7"><path id="" clip-rule="evenodd" transform="matrix(1 0 0 1 0 0)" d="M61.944 162.57L117.168 162.57L117.168 162.57L117.168 142.41L117.168 142.41L61.944 142.41z" /></clipPath><clipPath id="8"><path id="" clip-rule="evenodd" transform="matrix(1 0 0 1 0 0)" d="M61.944 162.57L117.168 162.57L117.168 162.57L117.168 142.41L117.168 142.41L61.944 142.41z" /></clipPath><clipPath id="9"><path id="" clip-rule="evenodd" transform="matrix(1 0 0 1 0 0)" d="M61.944 162.57L117.168 162.57L117.168 162.57L117.168 142.41L117.168 142.41L61.944 142.41z" /></clipPath><clipPath id="10"><path id="" clip-rule="evenodd" transform="matrix(1 0 0 1 0 0)" d="M117.41 162.57L533.5 162.57L533.5 162.57L533.5 142.41L533.5 142.41L117.41 142.41z" /></clipPath><clipPath id="11"><path id="" clip-rule="evenodd" transform="matrix(1 0 0 1 0 0)" d="M117.41 162.57L533.5 162.57L533.5 162.57L533.5 142.41L533.5 142.41L117.41 142.41z" /></clipPath><clipPath id="12"><path id="" clip-rule="evenodd" transform="matrix(1 0 0 1 0 0)" d="M117.41 162.57L533.5 162.57L533.5 162.57L533.5 142.41L533.5 142.41L117.41 142.41z" /></clipPath><clipPath id="13"><path id="" clip-rule="evenodd" transform="matrix(1 0 0 1 0 0)" d="M61.944 186.09L117.168 186.09L117.168 186.09L117.168 163.05L117.168 163.05L61.944 163.05z" /></clipPath><clipPath id="14"><path id="" clip-rule="evenodd" transform="matrix(1 0 0 1 0 0)" d="M61.944 186.09L117.168 186.09L117.168 186.09L117.168 163.05L117.168 163.05L61.944 163.05z" /></clipPath><clipPath id="15"><path id="" clip-rule="evenodd" transform="matrix(1 0 0 1 0 0)" d="M61.944 186.09L117.168 186.09L117.168 186.09L117.168 163.05L117.168 163.05L61.944 163.05z" /></clipPath><clipPath id="16"><path id="" clip-rule="evenodd" transform="matrix(1 0 0 1 0 0)" d="M117.41 186.09L533.5 186.09L533.5 186.09L533.5 163.05L533.5 163.05L117.41 163.05z" /></clipPath><clipPath id="17"><path id="" clip-rule="evenodd" transform="matrix(1 0 0 1 0 0)" d="M51.864 735.14L543.814 735.14L543.814 735.14L543.814 79.03003L543.814 79.03003L51.864 79.03003z" /></clipPath><clipPath id="18"><path id="" clip-rule="evenodd" transform="matrix(1 0 0 1 0 0)" d="M117.41 186.09L533.5 186.09L533.5 186.09L533.5 163.05L533.5 163.05L117.41 163.05z" /></clipPath><clipPath id="19"><path id="" clip-rule="evenodd" transform="matrix(1 0 0 1 0 0)" d="M51.864 735.14L543.814 735.14L543.814 735.14L543.814 79.03003L543.814 79.03003L51.864 79.03003z" /></clipPath><clipPath id="20"><path id="" clip-rule="evenodd" transform="matrix(1 0 0 1 0 0)" d="M117.41 186.09L533.5 186.09L533.5 186.09L533.5 163.05L533.5 163.05L117.41 163.05z" /></clipPath><clipPath id="21"><path id="" clip-rule="evenodd" transform="matrix(1 0 0 1 0 0)" d="M51.864 735.14L543.814 735.14L543.814 735.14L543.814 79.03003L543.814 79.03003L51.864 79.03003z" /></clipPath><clipPath id="22"><path id="" clip-rule="evenodd" transform="matrix(1 0 0 1 0 0)" d="M117.41 186.09L533.5 186.09L533.5 186.09L533.5 163.05L533.5 163.05L117.41 163.05z" /></clipPath><clipPath id="23"><path id="" clip-rule="evenodd" transform="matrix(1 0 0 1 0 0)" d="M51.864 735.14L543.814 735.14L543.814 735.14L543.814 79.03003L543.814 79.03003L51.864 79.03003z" /></clipPath><clipPath id="24"><path id="" clip-rule="evenodd" transform="matrix(1 0 0 1 0 0)" d="M117.41 186.09L533.5 186.09L533.5 186.09L533.5 163.05L533.5 163.05L117.41 163.05z" /></clipPath><clipPath id="25"><path id="" clip-rule="evenodd" transform="matrix(1 0 0 1 0 0)" d="M51.864 735.14L543.814 735.14L543.814 735.14L543.814 79.03003L543.814 79.03003L51.864 79.03003z" /></clipPath><clipPath id="26"><path id="" clip-rule="evenodd" transform="matrix(1 0 0 1 0 0)" d="M117.41 186.09L533.5 186.09L533.5 186.09L533.5 163.05L533.5 163.05L117.41 163.05z" /></clipPath><clipPath id="27"><path id="" clip-rule="evenodd" transform="matrix(1 0 0 1 0 0)" d="M61.944 274.67L117.168 274.67L117.168 274.67L117.168 186.566L117.168 186.566L61.944 186.566z" /></clipPath><clipPath id="28"><path id="" clip-rule="evenodd" transform="matrix(1 0 0 1 0 0)" d="M61.944 274.67L117.168 274.67L117.168 274.67L117.168 186.566L117.168 186.566L61.944 186.566z" /></clipPath><clipPath id="29"><path id="" clip-rule="evenodd" transform="matrix(1 0 0 1 0 0)" d="M61.944 274.67L117.168 274.67L117.168 274.67L117.168 186.566L117.168 186.566L61.944 186.566z" /></clipPath><clipPath id="30"><path id="" clip-rule="evenodd" transform="matrix(1 0 0 1 0 0)" d="M61.944 274.67L117.168 274.67L117.168 274.67L117.168 186.566L117.168 186.566L61.944 186.566z" /></clipPath><clipPath id="31"><path id="" clip-rule="evenodd" transform="matrix(1 0 0 1 0 0)" d="M61.944 274.67L117.168 274.67L117.168 274.67L117.168 186.566L117.168 186.566L61.944 186.566z" /></clipPath><clipPath id="32"><path id="" clip-rule="evenodd" transform="matrix(1 0 0 1 0 0)" d="M61.944 274.67L117.168 274.67L117.168 274.67L117.168 186.566L117.168 186.566L61.944 186.566z" /></clipPath><clipPath id="33"><path id="" clip-rule="evenodd" transform="matrix(1 0 0 1 0 0)" d="M61.944 274.67L117.168 274.67L117.168 274.67L117.168 186.566L117.168 186.566L61.944 186.566z" /></clipPath><clipPath id="34"><path id="" clip-rule="evenodd" transform="matrix(1 0 0 1 0 0)" d="M61.944 274.67L117.168 274.67L117.168 274.67L117.168 186.566L117.168 186.566L61.944 186.566z" /></clipPath><clipPath id="35"><path id="" clip-rule="evenodd" transform="matrix(1 0 0 1 0 0)" d="M61.944 274.67L117.168 274.67L117.168 274.67L117.168 186.566L117.168 186.566L61.944 186.566z" /></clipPath><clipPath id="36"><path id="" clip-rule="evenodd" transform="matrix(1 0 0 1 0 0)" d="M117.41 214.43L382.95 214.43L382.95 214.43L382.95 186.566L382.95 186.566L117.41 186.566z" /></clipPath><clipPath id="37"><path id="" clip-rule="evenodd" transform="matrix(1 0 0 1 0 0)" d="M117.41 214.43L382.95 214.43L382.95 214.43L382.95 186.566L382.95 186.566L117.41 186.566z" /></clipPath><clipPath id="38"><path id="" clip-rule="evenodd" transform="matrix(1 0 0 1 0 0)" d="M117.41 214.43L382.95 214.43L382.95 214.43L382.95 186.566L382.95 186.566L117.41 186.566z" /></clipPath><clipPath id="39"><path id="" clip-rule="evenodd" transform="matrix(1 0 0 1 0 0)" d="M383.42 214.43L533.49 214.43L533.49 214.43L533.49 186.566L533.49 186.566L383.42 186.566z" /></clipPath><clipPath id="40"><path id="" clip-rule="evenodd" transform="matrix(1 0 0 1 0 0)" d="M383.42 214.43L533.49 214.43L533.49 214.43L533.49 186.566L533.49 186.566L383.42 186.566z" /></clipPath><clipPath id="41"><path id="" clip-rule="evenodd" transform="matrix(1 0 0 1 0 0)" d="M383.42 214.43L533.49 214.43L533.49 214.43L533.49 186.566L533.49 186.566L383.42 186.566z" /></clipPath><clipPath id="42"><path id="" clip-rule="evenodd" transform="matrix(1 0 0 1 0 0)" d="M117.41 230.99L382.71 230.99L382.71 230.99L382.71 215.39L382.71 215.39L117.41 215.39z" /></clipPath><clipPath id="43"><path id="" clip-rule="evenodd" transform="matrix(1 0 0 1 0 0)" d="M117.41 230.99L382.71 230.99L382.71 230.99L382.71 215.39L382.71 215.39L117.41 215.39z" /></clipPath><clipPath id="44"><path id="" clip-rule="evenodd" transform="matrix(1 0 0 1 0 0)" d="M117.41 230.99L382.71 230.99L382.71 230.99L382.71 215.39L382.71 215.39L117.41 215.39z" /></clipPath><clipPath id="45"><path id="" clip-rule="evenodd" transform="matrix(1 0 0 1 0 0)" d="M383.18 230.99L533.49 230.99L533.49 230.99L533.49 215.39L533.49 215.39L383.18 215.39z" /></clipPath><clipPath id="46"><path id="" clip-rule="evenodd" transform="matrix(1 0 0 1 0 0)" d="M383.18 230.99L533.49 230.99L533.49 230.99L533.49 215.39L533.49 215.39L383.18 215.39z" /></clipPath><clipPath id="47"><path id="" clip-rule="evenodd" transform="matrix(1 0 0 1 0 0)" d="M383.18 230.99L533.49 230.99L533.49 230.99L533.49 215.39L533.49 215.39L383.18 215.39z" /></clipPath><clipPath id="48"><path id="" clip-rule="evenodd" transform="matrix(1 0 0 1 0 0)" d="M383.18 230.99L533.49 230.99L533.49 230.99L533.49 215.39L533.49 215.39L383.18 215.39z" /></clipPath><clipPath id="49"><path id="" clip-rule="evenodd" transform="matrix(1 0 0 1 0 0)" d="M117.41 253.55L254.26 253.55L254.26 253.55L254.26 231.95L254.26 231.95L117.41 231.95z" /></clipPath><clipPath id="50"><path id="" clip-rule="evenodd" transform="matrix(1 0 0 1 0 0)" d="M117.41 253.55L254.26 253.55L254.26 253.55L254.26 231.95L254.26 231.95L117.41 231.95z" /></clipPath><clipPath id="51"><path id="" clip-rule="evenodd" transform="matrix(1 0 0 1 0 0)" d="M117.41 253.55L254.26 253.55L254.26 253.55L254.26 231.95L254.26 231.95L117.41 231.95z" /></clipPath><clipPath id="52"><path id="" clip-rule="evenodd" transform="matrix(1 0 0 1 0 0)" d="M254.5 253.55L382.95 253.55L382.95 253.55L382.95 231.95L382.95 231.95L254.5 231.95z" /></clipPath><clipPath id="53"><path id="" clip-rule="evenodd" transform="matrix(1 0 0 1 0 0)" d="M254.5 253.55L382.95 253.55L382.95 253.55L382.95 231.95L382.95 231.95L254.5 231.95z" /></clipPath><clipPath id="54"><path id="" clip-rule="evenodd" transform="matrix(1 0 0 1 0 0)" d="M254.5 253.55L382.95 253.55L382.95 253.55L382.95 231.95L382.95 231.95L254.5 231.95z" /></clipPath><clipPath id="55"><path id="" clip-rule="evenodd" transform="matrix(1 0 0 1 0 0)" d="M383.18 253.55L533.49 253.55L533.49 253.55L533.49 231.95L533.49 231.95L383.18 231.95z" /></clipPath><clipPath id="56"><path id="" clip-rule="evenodd" transform="matrix(1 0 0 1 0 0)" d="M383.18 253.55L533.49 253.55L533.49 253.55L533.49 231.95L533.49 231.95L383.18 231.95z" /></clipPath><clipPath id="57"><path id="" clip-rule="evenodd" transform="matrix(1 0 0 1 0 0)" d="M383.18 253.55L533.49 253.55L533.49 253.55L533.49 231.95L533.49 231.95L383.18 231.95z" /></clipPath><clipPath id="58"><path id="" clip-rule="evenodd" transform="matrix(1 0 0 1 0 0)" d="M117.41 274.67L533.5 274.67L533.5 274.67L533.5 254.51L533.5 254.51L117.41 254.51z" /></clipPath><clipPath id="59"><path id="" clip-rule="evenodd" transform="matrix(1 0 0 1 0 0)" d="M117.41 274.67L533.5 274.67L533.5 274.67L533.5 254.51L533.5 254.51L117.41 254.51z" /></clipPath><clipPath id="60"><path id="" clip-rule="evenodd" transform="matrix(1 0 0 1 0 0)" d="M117.41 274.67L533.5 274.67L533.5 274.67L533.5 254.51L533.5 254.51L117.41 254.51z" /></clipPath><clipPath id="61"><path id="" clip-rule="evenodd" transform="matrix(1 0 0 1 0 0)" d="M117.41 274.67L533.5 274.67L533.5 274.67L533.5 254.51L533.5 254.51L117.41 254.51z" /></clipPath><clipPath id="62"><path id="" clip-rule="evenodd" transform="matrix(1 0 0 1 0 0)" d="M117.41 274.67L533.5 274.67L533.5 274.67L533.5 254.51L533.5 254.51L117.41 254.51z" /></clipPath><clipPath id="63"><path id="" clip-rule="evenodd" transform="matrix(1 0 0 1 0 0)" d="M117.41 274.67L533.5 274.67L533.5 274.67L533.5 254.51L533.5 254.51L117.41 254.51z" /></clipPath><clipPath id="64"><path id="" clip-rule="evenodd" transform="matrix(1 0 0 1 0 0)" d="M61.944 305.66L148.848 305.66L148.848 305.66L148.848 275.636L148.848 275.636L61.944 275.636z" /></clipPath><clipPath id="65"><path id="" clip-rule="evenodd" transform="matrix(1 0 0 1 0 0)" d="M61.944 305.66L148.848 305.66L148.848 305.66L148.848 275.636L148.848 275.636L61.944 275.636z" /></clipPath><clipPath id="66"><path id="" clip-rule="evenodd" transform="matrix(1 0 0 1 0 0)" d="M61.944 305.66L148.848 305.66L148.848 305.66L148.848 275.636L148.848 275.636L61.944 275.636z" /></clipPath><clipPath id="67"><path id="" clip-rule="evenodd" transform="matrix(1 0 0 1 0 0)" d="M149.33 305.66L249.218 305.66L249.218 305.66L249.218 275.636L249.218 275.636L149.33 275.636z" /></clipPath><clipPath id="68"><path id="" clip-rule="evenodd" transform="matrix(1 0 0 1 0 0)" d="M249.7 305.66L354.15 305.66L354.15 305.66L354.15 275.636L354.15 275.636L249.7 275.636z" /></clipPath><clipPath id="69"><path id="" clip-rule="evenodd" transform="matrix(1 0 0 1 0 0)" d="M354.62 305.66L440.564 305.66L440.564 305.66L440.564 275.636L440.564 275.636L354.62 275.636z" /></clipPath><clipPath id="70"><path id="" clip-rule="evenodd" transform="matrix(1 0 0 1 0 0)" d="M441.29 305.66L533.498 305.66L533.498 305.66L533.498 275.636L533.498 275.636L441.29 275.636z" /></clipPath><clipPath id="71"><path id="" clip-rule="evenodd" transform="matrix(1 0 0 1 0 0)" d="M61.944 328.46L148.848 328.46L148.848 328.46L148.848 306.38L148.848 306.38L61.944 306.38z" /></clipPath><clipPath id="72"><path id="" clip-rule="evenodd" transform="matrix(1 0 0 1 0 0)" d="M61.944 328.46L148.848 328.46L148.848 328.46L148.848 306.38L148.848 306.38L61.944 306.38z" /></clipPath><clipPath id="73"><path id="" clip-rule="evenodd" transform="matrix(1 0 0 1 0 0)" d="M61.944 328.46L148.848 328.46L148.848 328.46L148.848 306.38L148.848 306.38L61.944 306.38z" /></clipPath><clipPath id="74"><path id="" clip-rule="evenodd" transform="matrix(1 0 0 1 0 0)" d="M149.33 328.46L249.218 328.46L249.218 328.46L249.218 306.38L249.218 306.38L149.33 306.38z" /></clipPath><clipPath id="75"><path id="" clip-rule="evenodd" transform="matrix(1 0 0 1 0 0)" d="M249.7 328.46L354.15 328.46L354.15 328.46L354.15 306.38L354.15 306.38L249.7 306.38z" /></clipPath><clipPath id="76"><path id="" clip-rule="evenodd" transform="matrix(1 0 0 1 0 0)" d="M354.62 328.46L440.564 328.46L440.564 328.46L440.564 306.38L440.564 306.38L354.62 306.38z" /></clipPath><clipPath id="77"><path id="" clip-rule="evenodd" transform="matrix(1 0 0 1 0 0)" d="M441.29 328.46L533.498 328.46L533.498 328.46L533.498 306.38L533.498 306.38L441.29 306.38z" /></clipPath><clipPath id="78"><path id="" clip-rule="evenodd" transform="matrix(1 0 0 1 0 0)" d="M61.944 344.54L533.494 344.54L533.494 344.54L533.494 328.94L533.494 328.94L61.944 328.94z" /></clipPath><clipPath id="79"><path id="" clip-rule="evenodd" transform="matrix(1 0 0 1 0 0)" d="M61.944 344.54L533.494 344.54L533.494 344.54L533.494 328.94L533.494 328.94L61.944 328.94z" /></clipPath><clipPath id="80"><path id="" clip-rule="evenodd" transform="matrix(1 0 0 1 0 0)" d="M61.944 344.54L533.494 344.54L533.494 344.54L533.494 328.94L533.494 328.94L61.944 328.94z" /></clipPath><clipPath id="81"><path id="" clip-rule="evenodd" transform="matrix(1 0 0 1 0 0)" d="M61.944 547.89L533.494 547.89L533.494 547.89L533.494 345.02L533.494 345.02L61.944 345.02z" /></clipPath><clipPath id="82"><path id="" clip-rule="evenodd" transform="matrix(1 0 0 1 0 0)" d="M61.944 642.71L533.494 642.71L533.494 642.71L533.494 549.086L533.494 549.086L61.944 549.086z" /></clipPath><clipPath id="83"><path id="" clip-rule="evenodd" transform="matrix(1 0 0 1 0 0)" d="M61.944 642.71L533.494 642.71L533.494 642.71L533.494 549.086L533.494 549.086L61.944 549.086z" /></clipPath><clipPath id="84"><path id="" clip-rule="evenodd" transform="matrix(1 0 0 1 0 0)" d="M61.944 642.71L533.494 642.71L533.494 642.71L533.494 549.086L533.494 549.086L61.944 549.086z" /></clipPath><clipPath id="85"><path id="" clip-rule="evenodd" transform="matrix(1 0 0 1 0 0)" d="M61.944 642.71L533.494 642.71L533.494 642.71L533.494 549.086L533.494 549.086L61.944 549.086z" /></clipPath><clipPath id="86"><path id="" clip-rule="evenodd" transform="matrix(1 0 0 1 0 0)" d="M61.944 642.71L533.494 642.71L533.494 642.71L533.494 549.086L533.494 549.086L61.944 549.086z" /></clipPath><clipPath id="87"><path id="" clip-rule="evenodd" transform="matrix(1 0 0 1 0 0)" d="M61.944 642.71L533.494 642.71L533.494 642.71L533.494 549.086L533.494 549.086L61.944 549.086z" /></clipPath><clipPath id="88"><path id="" clip-rule="evenodd" transform="matrix(1 0 0 1 0 0)" d="M61.944 642.71L533.494 642.71L533.494 642.71L533.494 549.086L533.494 549.086L61.944 549.086z" /></clipPath><clipPath id="89"><path id="" clip-rule="evenodd" transform="matrix(1 0 0 1 0 0)" d="M61.944 642.71L533.494 642.71L533.494 642.71L533.494 549.086L533.494 549.086L61.944 549.086z" /></clipPath><clipPath id="90"><path id="" clip-rule="evenodd" transform="matrix(1 0 0 1 0 0)" d="M61.944 706.07L533.494 706.07L533.494 706.07L533.494 643.67L533.494 643.67L61.944 643.67z" /></clipPath><clipPath id="91"><path id="" clip-rule="evenodd" transform="matrix(1 0 0 1 0 0)" d="M61.944 706.07L533.494 706.07L533.494 706.07L533.494 643.67L533.494 643.67L61.944 643.67z" /></clipPath><clipPath id="92"><path id="" clip-rule="evenodd" transform="matrix(1 0 0 1 0 0)" d="M61.944 706.07L533.494 706.07L533.494 706.07L533.494 643.67L533.494 643.67L61.944 643.67z" /></clipPath><clipPath id="93"><path id="" clip-rule="evenodd" transform="matrix(1 0 0 1 0 0)" d="M61.944 706.07L533.494 706.07L533.494 706.07L533.494 643.67L533.494 643.67L61.944 643.67z" /></clipPath><clipPath id="94"><path id="" clip-rule="evenodd" transform="matrix(1 0 0 1 0 0)" d="M61.944 706.07L533.494 706.07L533.494 706.07L533.494 643.67L533.494 643.67L61.944 643.67z" /></clipPath><clipPath id="95"><path id="" clip-rule="evenodd" transform="matrix(1 0 0 1 0 0)" d="M61.944 706.07L533.494 706.07L533.494 706.07L533.494 643.67L533.494 643.67L61.944 643.67z" /></clipPath><clipPath id="96"><path id="" clip-rule="evenodd" transform="matrix(1 0 0 1 0 0)" d="M61.944 706.07L533.494 706.07L533.494 706.07L533.494 643.67L533.494 643.67L61.944 643.67z" /></clipPath><clipPath id="97"><path id="" clip-rule="evenodd" transform="matrix(1 0 0 1 0 0)" d="M61.944 706.07L533.494 706.07L533.494 706.07L533.494 643.67L533.494 643.67L61.944 643.67z" /></clipPath><clipPath id="98"><path id="" clip-rule="evenodd" transform="matrix(1 0 0 1 0 0)" d="M61.944 706.07L533.494 706.07L533.494 706.07L533.494 643.67L533.494 643.67L61.944 643.67z" /></clipPath><clipPath id="99"><path id="" clip-rule="evenodd" transform="matrix(1 0 0 1 0 0)" d="M61.944 706.07L533.494 706.07L533.494 706.07L533.494 643.67L533.494 643.67L61.944 643.67z" /></clipPath><clipPath id="100"><path id="" clip-rule="evenodd" transform="matrix(1 0 0 1 0 0)" d="M61.944 706.07L533.494 706.07L533.494 706.07L533.494 643.67L533.494 643.67L61.944 643.67z" /></clipPath><clipPath id="101"><path id="" clip-rule="evenodd" transform="matrix(1 0 0 1 0 0)" d="M61.944 706.07L533.494 706.07L533.494 706.07L533.494 643.67L533.494 643.67L61.944 643.67z" /></clipPath><clipPath id="102"><path id="" clip-rule="evenodd" transform="matrix(1 0 0 1 0 0)" d="M61.944 706.07L533.494 706.07L533.494 706.07L533.494 643.67L533.494 643.67L61.944 643.67z" /></clipPath><clipPath id="103"><path id="" clip-rule="evenodd" transform="matrix(1 0 0 1 0 0)" d="M61.464 735.14L533.974 735.14L533.974 735.14L533.974 707.036L533.974 707.036L61.464 707.036z" /></clipPath><clipPath id="104"><path id="" clip-rule="evenodd" transform="matrix(1 0 0 1 0 0)" d="M61.464 735.14L533.974 735.14L533.974 735.14L533.974 707.036L533.974 707.036L61.464 707.036z" /></clipPath><clipPath id="105"><path id="" clip-rule="evenodd" transform="matrix(1 0 0 1 0 0)" d="M61.464 735.14L533.974 735.14L533.974 735.14L533.974 707.036L533.974 707.036L61.464 707.036z" /></clipPath><clipPath id="106"><path id="" clip-rule="evenodd" transform="matrix(1 0 0 1 0 0)" d="M61.464 735.14L533.974 735.14L533.974 735.14L533.974 707.036L533.974 707.036L61.464 707.036z" /></clipPath><clipPath id="107"><path id="" clip-rule="evenodd" transform="matrix(1 0 0 1 0 0)" d="M61.464 735.14L533.974 735.14L533.974 735.14L533.974 707.036L533.974 707.036L61.464 707.036z" /></clipPath><clipPath id="108"><path id="" clip-rule="evenodd" transform="matrix(1 0 0 1 0 0)" d="M61.464 735.14L533.974 735.14L533.974 735.14L533.974 707.036L533.974 707.036L61.464 707.036z" /></clipPath><clipPath id="109"><path id="" clip-rule="evenodd" transform="matrix(1 0 0 1 0 0)" d="M61.464 735.14L533.974 735.14L533.974 735.14L533.974 707.036L533.974 707.036L61.464 707.036z" /></clipPath><clipPath id="110"><path id="" clip-rule="evenodd" transform="matrix(1 0 0 1 0 0)" d="M61.464 735.14L533.974 735.14L533.974 735.14L533.974 707.036L533.974 707.036L61.464 707.036z" /></clipPath><clipPath id="111"><path id="" clip-rule="evenodd" transform="matrix(1 0 0 1 0 0)" d="M61.464 735.14L533.974 735.14L533.974 735.14L533.974 707.036L533.974 707.036L61.464 707.036z" /></clipPath><clipPath id="112"><path id="" clip-rule="evenodd" transform="matrix(1 0 0 1 0 0)" d="M61.464 735.14L533.974 735.14L533.974 735.14L533.974 707.036L533.974 707.036L61.464 707.036z" /></clipPath><clipPath id="113"><path id="" clip-rule="evenodd" transform="matrix(1 0 0 1 0 0)" d="M61.464 735.14L533.974 735.14L533.974 735.14L533.974 707.036L533.974 707.036L61.464 707.036z" /></clipPath><clipPath id="114"><path id="" clip-rule="evenodd" transform="matrix(1 0 0 1 0 0)" d="M61.464 735.14L533.974 735.14L533.974 735.14L533.974 707.036L533.974 707.036L61.464 707.036z" /></clipPath><clipPath id="115"><path id="" clip-rule="evenodd" transform="matrix(1 0 0 1 0 0)" d="M61.464 735.14L533.974 735.14L533.974 735.14L533.974 707.036L533.974 707.036L61.464 707.036z" /></clipPath><clipPath id="116"><path id="" clip-rule="evenodd" transform="matrix(1 0 0 1 0 0)" d="M61.464 735.14L533.974 735.14L533.974 735.14L533.974 707.036L533.974 707.036L61.464 707.036z" /></clipPath><clipPath id="117"><path id="" clip-rule="evenodd" transform="matrix(1 0 0 1 0 0)" d="M61.464 735.14L533.974 735.14L533.974 735.14L533.974 707.036L533.974 707.036L61.464 707.036z" /></clipPath><clipPath id="118"><path id="" clip-rule="evenodd" transform="matrix(1 0 0 1 0 0)" d="M61.464 735.14L533.974 735.14L533.974 735.14L533.974 707.036L533.974 707.036L61.464 707.036z" /></clipPath><clipPath id="119"><path id="" clip-rule="evenodd" transform="matrix(1 0 0 1 0 0)" d="M173.18 185.73L198.78 185.73L198.78 185.73L198.78 163.37L198.78 163.37L173.18 163.37z" /></clipPath><clipPath id="120"><path id="" clip-rule="evenodd" transform="matrix(1 0 0 1 0 0)" d="M173.18 185.73L198.78 185.73L198.78 185.73L198.78 163.37L198.78 163.37L173.18 163.37z" /></clipPath><clipPath id="121"><path id="" clip-rule="evenodd" transform="matrix(1 0 0 1 0 0)" d="M119.52 560.56L130.08 560.56L130.08 560.56L130.08 553.48L130.08 553.48L119.52 553.48z" /></clipPath><clipPath id="122"><path id="" clip-rule="evenodd" transform="matrix(1 0 0 1 0 0)" d="M120.52 559.56L129.08 559.56L129.08 559.56L129.08 554.48L129.08 554.48L120.52 554.48z" /></clipPath><clipPath id="123"><path id="" clip-rule="evenodd" transform="matrix(1 0 0 1 0 0)" d="M61.11 626.65L534.08 626.65L534.08 626.65L534.08 610.25L534.08 610.25L61.11 610.25z" /></clipPath><clipPath id="124"><path id="" clip-rule="evenodd" transform="matrix(1 0 0 1 0 0)" d="M223.4 185.35L245.23 185.35L245.23 185.35L245.23 162.99L245.23 162.99L223.4 162.99z" /></clipPath><clipPath id="125"><path id="" clip-rule="evenodd" transform="matrix(1 0 0 1 0 0)" d="M223.4 185.35L245.23 185.35L245.23 185.35L245.23 162.99L245.23 162.99L223.4 162.99z" /></clipPath><clipPath id="126"><path id="" clip-rule="evenodd" transform="matrix(1 0 0 1 0 0)" d="M61.11 610.65L534.08 610.65L534.08 610.65L534.08 594.25L534.08 594.25L61.11 594.25z" /></clipPath><clipPath id="127"><path id="" clip-rule="evenodd" transform="matrix(1 0 0 1 0 0)" d="M85.62 594.46L534.09 594.46L534.09 594.46L534.09 578.06L534.09 578.06L85.62 578.06z" /></clipPath><clipPath id="128"><path id="" clip-rule="evenodd" transform="matrix(1 0 0 1 0 0)" d="M85.62 594.46L534.09 594.46L534.09 594.46L534.09 578.06L534.09 578.06L85.62 578.06z" /></clipPath><clipPath id="129"><path id="" clip-rule="evenodd" transform="matrix(1 0 0 1 0 0)" d="M437.86 253.6L532.92 253.6L532.92 253.6L532.92 232.84L532.92 232.84L437.86 232.84z" /></clipPath><clipPath id="130"><path id="" clip-rule="evenodd" transform="matrix(1 0 0 1 0 0)" d="M437.86 253.6L532.92 253.6L532.92 253.6L532.92 232.84L532.92 232.84L437.86 232.84z" /></clipPath><clipPath id="131"><path id="" clip-rule="evenodd" transform="matrix(1 0 0 1 0 0)" d="M158.06 253.3L253.12 253.3L253.12 253.3L253.12 232.54L253.12 232.54L158.06 232.54z" /></clipPath><clipPath id="132"><path id="" clip-rule="evenodd" transform="matrix(1 0 0 1 0 0)" d="M158.06 253.3L253.12 253.3L253.12 253.3L253.12 232.54L253.12 232.54L158.06 232.54z" /></clipPath><clipPath id="133"><path id="" clip-rule="evenodd" transform="matrix(1 0 0 1 0 0)" d="M61.11 642.65L534.08 642.65L534.08 642.65L534.08 626.25L534.08 626.25L61.11 626.25z" /></clipPath><clipPath id="134"><path id="" clip-rule="evenodd" transform="matrix(1 0 0 1 0 0)" d="M429.93 134.14L530.54 134.14L530.54 134.14L530.54 116.68L530.54 116.68L429.93 116.68z" /></clipPath><clipPath id="135"><path id="" clip-rule="evenodd" transform="matrix(1 0 0 1 0 0)" d="M429.93 134.14L530.54 134.14L530.54 134.14L530.54 116.68L530.54 116.68L429.93 116.68z" /></clipPath><clipPath id="136"><path id="" clip-rule="evenodd" transform="matrix(1 0 0 1 0 0)" d="M333 156.04L343.56 156.04L343.56 156.04L343.56 148.96L343.56 148.96L333 148.96z" /></clipPath><clipPath id="137"><path id="" clip-rule="evenodd" transform="matrix(1 0 0 1 0 0)" d="M334 155.04L342.56 155.04L342.56 155.04L342.56 149.96L342.56 149.96L334 149.96z" /></clipPath><clipPath id="138"><path id="" clip-rule="evenodd" transform="matrix(1 0 0 1 0 0)" d="M151.35 231.65L381.35 231.65L381.35 231.65L381.35 213.53L381.35 213.53L151.35 213.53z" /></clipPath><clipPath id="139"><path id="" clip-rule="evenodd" transform="matrix(1 0 0 1 0 0)" d="M151.35 231.65L381.35 231.65L381.35 231.65L381.35 213.53L381.35 213.53L151.35 213.53z" /></clipPath><clipPath id="140"><path id="" clip-rule="evenodd" transform="matrix(1 0 0 1 0 0)" d="M451.08 231.04L533.04 231.04L533.04 231.04L533.04 216.16L533.04 216.16L451.08 216.16z" /></clipPath><clipPath id="141"><path id="" clip-rule="evenodd" transform="matrix(1 0 0 1 0 0)" d="M150.43 212.88L381.94 212.88L381.94 212.88L381.94 188.73L381.94 188.73L150.43 188.73z" /></clipPath><clipPath id="142"><path id="" clip-rule="evenodd" transform="matrix(1 0 0 1 0 0)" d="M150.43 212.88L381.94 212.88L381.94 212.88L381.94 188.73L381.94 188.73L150.43 188.73z" /></clipPath><clipPath id="143"><path id="" clip-rule="evenodd" transform="matrix(1 0 0 1 0 0)" d="M446.46 211.13L532.47 211.13L532.47 211.13L532.47 190.37L532.47 190.37L446.46 190.37z" /></clipPath><clipPath id="144"><path id="" clip-rule="evenodd" transform="matrix(1 0 0 1 0 0)" d="M446.46 211.13L532.47 211.13L532.47 211.13L532.47 190.37L532.47 190.37L446.46 190.37z" /></clipPath><clipPath id="145"><path id="" clip-rule="evenodd" transform="matrix(1 0 0 1 0 0)" d="M63.89 494.35L532.5 494.35L532.5 494.35L532.5 477.36L532.5 477.36L63.89 477.36z" /></clipPath><clipPath id="146"><path id="" clip-rule="evenodd" transform="matrix(1 0 0 1 0 0)" d="M63.29 478.61L531.9 478.61L531.9 478.61L531.9 461.62L531.9 461.62L63.29 461.62z" /></clipPath><clipPath id="147"><path id="" clip-rule="evenodd" transform="matrix(1 0 0 1 0 0)" d="M63.29 461.98L531.9 461.98L531.9 461.98L531.9 444.99L531.9 444.99L63.29 444.99z" /></clipPath><clipPath id="148"><path id="" clip-rule="evenodd" transform="matrix(1 0 0 1 0 0)" d="M121.58 185.54L154.34 185.54L154.34 185.54L154.34 163.56L154.34 163.56L121.58 163.56z" /></clipPath><clipPath id="149"><path id="" clip-rule="evenodd" transform="matrix(1 0 0 1 0 0)" d="M121.58 185.54L154.34 185.54L154.34 185.54L154.34 163.56L154.34 163.56L121.58 163.56z" /></clipPath><clipPath id="150"><path id="" clip-rule="evenodd" transform="matrix(1 0 0 1 0 0)" d="M149.04 268.24L159.6 268.24L159.6 268.24L159.6 261.16L159.6 261.16L149.04 261.16z" /></clipPath><clipPath id="151"><path id="" clip-rule="evenodd" transform="matrix(1 0 0 1 0 0)" d="M150.04 267.24L158.6 267.24L158.6 267.24L158.6 262.16L158.6 262.16L150.04 262.16z" /></clipPath><clipPath id="152"><path id="" clip-rule="evenodd" transform="matrix(1 0 0 1 0 0)" d="M62.73 380.51L531.34 380.51L531.34 380.51L531.34 363.52L531.34 363.52L62.73 363.52z" /></clipPath><clipPath id="153"><path id="" clip-rule="evenodd" transform="matrix(1 0 0 1 0 0)" d="M78.94 363.79L531.34 363.79L531.34 363.79L531.34 346.8L531.34 346.8L78.94 346.8z" /></clipPath><clipPath id="154"><path id="" clip-rule="evenodd" transform="matrix(1 0 0 1 0 0)" d="M78.94 363.79L531.34 363.79L531.34 363.79L531.34 346.8L531.34 346.8L78.94 346.8z" /></clipPath><clipPath id="155"><path id="" clip-rule="evenodd" transform="matrix(1 0 0 1 0 0)" d="M63.29 445.7L531.9 445.7L531.9 445.7L531.9 428.71L531.9 428.71L63.29 428.71z" /></clipPath><clipPath id="156"><path id="" clip-rule="evenodd" transform="matrix(1 0 0 1 0 0)" d="M285.51 253.72L381.7 253.72L381.7 253.72L381.7 232.96L381.7 232.96L285.51 232.96z" /></clipPath><clipPath id="157"><path id="" clip-rule="evenodd" transform="matrix(1 0 0 1 0 0)" d="M285.51 253.72L381.7 253.72L381.7 253.72L381.7 232.96L381.7 232.96L285.51 232.96z" /></clipPath><clipPath id="158"><path id="" clip-rule="evenodd" transform="matrix(1 0 0 1 0 0)" d="M62.92 429.89L531.53 429.89L531.53 429.89L531.53 412.9L531.53 412.9L62.92 412.9z" /></clipPath><clipPath id="159"><path id="" clip-rule="evenodd" transform="matrix(1 0 0 1 0 0)" d="M62.59 414.56L531.2 414.56L531.2 414.56L531.2 397.57L531.2 397.57L62.59 397.57z" /></clipPath><clipPath id="160"><path id="" clip-rule="evenodd" transform="matrix(1 0 0 1 0 0)" d="M63.29 397.58L531.15 397.58L531.15 397.58L531.15 380.59L531.15 380.59L63.29 380.59z" /></clipPath></defs><g transform="matrix(1.333333 0 0 1.333333 0 0)"><g clip-path="url(#1)"><g clip-path="url(#2)"><g clip-path="url(#3)"><g clip-path="url(#4)"></g><g clip-path="url(#5)"></g></g></g><g clip-path="url(#6)"><g clip-path="url(#7)"><g clip-path="url(#8)"></g><g clip-path="url(#9)"></g></g><g clip-path="url(#10)"><g clip-path="url(#11)"></g><g clip-path="url(#12)"></g></g><path id="34" transform="matrix(1 0 0 -1 0 841)" d="M60.984 698.59L61.944 698.59L61.944 698.59L61.944 699.55L61.944 699.55L60.984 699.55z" stroke="none" fill="#000000" fill-rule="evenodd" /><path id="35" transform="matrix(1 0 0 -1 0 841)" d="M60.984 698.59L61.944 698.59L61.944 698.59L61.944 699.55L61.944 699.55L60.984 699.55z" stroke="none" fill="#000000" fill-rule="evenodd" /><path id="36" transform="matrix(1 0 0 -1 0 841)" d="M61.944 698.59L62.904 698.59L62.904 698.59L62.904 699.55L62.904 699.55L61.944 699.55z" stroke="none" fill="#000000" fill-rule="evenodd" /><path id="37" transform="matrix(1 0 0 -1 0 841)" d="M62.904 698.59L117.168 698.59L117.168 698.59L117.168 699.55L117.168 699.55L62.904 699.55z" stroke="none" fill="#000000" fill-rule="evenodd" /><path id="38" transform="matrix(1 0 0 -1 0 841)" d="M117.17 698.59L118.13 698.59L118.13 698.59L118.13 699.55L118.13 699.55L117.17 699.55z" stroke="none" fill="#000000" fill-rule="evenodd" /><path id="39" transform="matrix(1 0 0 -1 0 841)" d="M118.13 698.59L533.5 698.59L533.5 698.59L533.5 699.55L533.5 699.55L118.13 699.55z" stroke="none" fill="#000000" fill-rule="evenodd" /><path id="40" transform="matrix(1 0 0 -1 0 841)" d="M533.5 698.59L534.46 698.59L534.46 698.59L534.46 699.55L534.46 699.55L533.5 699.55z" stroke="none" fill="#000000" fill-rule="evenodd" /><path id="41" transform="matrix(1 0 0 -1 0 841)" d="M533.5 698.59L534.46 698.59L534.46 698.59L534.46 699.55L534.46 699.55L533.5 699.55z" stroke="none" fill="#000000" fill-rule="evenodd" /><path id="42" transform="matrix(1 0 0 -1 0 841)" d="M60.984 678.43L61.944 678.43L61.944 678.43L61.944 698.59L61.944 698.59L60.984 698.59z" stroke="none" fill="#000000" fill-rule="evenodd" /><path id="43" transform="matrix(1 0 0 -1 0 841)" d="M117.17 678.43L117.65 678.43L117.65 678.43L117.65 698.59L117.65 698.59L117.17 698.59z" stroke="none" fill="#000000" fill-rule="evenodd" /><path id="44" transform="matrix(1 0 0 -1 0 841)" d="M533.5 678.43L534.46 678.43L534.46 678.43L534.46 698.59L534.46 698.59L533.5 698.59z" stroke="none" fill="#000000" fill-rule="evenodd" /><g clip-path="url(#13)"><g clip-path="url(#14)"></g><g clip-path="url(#15)"></g></g><g clip-path="url(#16)"></g></g><g clip-path="url(#17)"><g clip-path="url(#18)"></g></g><g clip-path="url(#19)"><g clip-path="url(#20)"></g></g><g clip-path="url(#21)"><g clip-path="url(#22)"></g></g><g clip-path="url(#23)"><g clip-path="url(#24)"></g></g><g clip-path="url(#25)"><g clip-path="url(#26)"></g><path id="52" transform="matrix(1 0 0 -1 0 841)" d="M60.984 677.95L61.944 677.95L61.944 677.95L61.944 678.43L61.944 678.43L60.984 678.43z" stroke="none" fill="#000000" fill-rule="evenodd" /><path id="53" transform="matrix(1 0 0 -1 0 841)" d="M61.944 677.95L117.168 677.95L117.168 677.95L117.168 678.43L117.168 678.43L61.944 678.43z" stroke="none" fill="#000000" fill-rule="evenodd" /><path id="54" transform="matrix(1 0 0 -1 0 841)" d="M117.17 677.95L117.65 677.95L117.65 677.95L117.65 678.43L117.65 678.43L117.17 678.43z" stroke="none" fill="#000000" fill-rule="evenodd" /><path id="55" transform="matrix(1 0 0 -1 0 841)" d="M117.65 677.95L533.5 677.95L533.5 677.95L533.5 678.43L533.5 678.43L117.65 678.43z" stroke="none" fill="#000000" fill-rule="evenodd" /><path id="56" transform="matrix(1 0 0 -1 0 841)" d="M533.5 677.95L534.46 677.95L534.46 677.95L534.46 678.43L534.46 678.43L533.5 678.43z" stroke="none" fill="#000000" fill-rule="evenodd" /><path id="57" transform="matrix(1 0 0 -1 0 841)" d="M60.984 654.91L61.944 654.91L61.944 654.91L61.944 677.95L61.944 677.95L60.984 677.95z" stroke="none" fill="#000000" fill-rule="evenodd" /><path id="58" transform="matrix(1 0 0 -1 0 841)" d="M117.17 654.91L117.65 654.91L117.65 654.91L117.65 677.95L117.65 677.95L117.17 677.95z" stroke="none" fill="#000000" fill-rule="evenodd" /><path id="59" transform="matrix(1 0 0 -1 0 841)" d="M533.5 654.91L534.46 654.91L534.46 654.91L534.46 677.95L534.46 677.95L533.5 677.95z" stroke="none" fill="#000000" fill-rule="evenodd" /><g clip-path="url(#27)"><g clip-path="url(#28)"></g><g clip-path="url(#29)"></g><g clip-path="url(#30)"></g><g clip-path="url(#31)"></g><g clip-path="url(#32)"></g><g clip-path="url(#33)"></g><g clip-path="url(#34)"></g><g clip-path="url(#35)"></g></g><g clip-path="url(#36)"><g clip-path="url(#37)"></g><g clip-path="url(#38)"></g></g><g clip-path="url(#39)"><g clip-path="url(#40)"></g><g clip-path="url(#41)"></g></g><path id="76" transform="matrix(1 0 0 -1 0 841)" d="M60.984 654.43L61.944 654.43L61.944 654.43L61.944 654.91L61.944 654.91L60.984 654.91z" stroke="none" fill="#000000" fill-rule="evenodd" /><path id="77" transform="matrix(1 0 0 -1 0 841)" d="M61.944 654.43L117.168 654.43L117.168 654.43L117.168 654.91L117.168 654.91L61.944 654.91z" stroke="none" fill="#000000" fill-rule="evenodd" /><path id="78" transform="matrix(1 0 0 -1 0 841)" d="M117.17 654.43L117.65 654.43L117.65 654.43L117.65 654.91L117.65 654.91L117.17 654.91z" stroke="none" fill="#000000" fill-rule="evenodd" /><path id="79" transform="matrix(1 0 0 -1 0 841)" d="M117.65 654.43L382.95 654.43L382.95 654.43L382.95 654.91L382.95 654.91L117.65 654.91z" stroke="none" fill="#000000" fill-rule="evenodd" /><path id="80" transform="matrix(1 0 0 -1 0 841)" d="M382.94 654.43L383.42 654.43L383.42 654.43L383.42 654.91L383.42 654.91L382.94 654.91z" stroke="none" fill="#000000" fill-rule="evenodd" /><path id="81" transform="matrix(1 0 0 -1 0 841)" d="M383.42 654.43L533.49 654.43L533.49 654.43L533.49 654.91L533.49 654.91L383.42 654.91z" stroke="none" fill="#000000" fill-rule="evenodd" /><path id="82" transform="matrix(1 0 0 -1 0 841)" d="M533.5 654.43L534.46 654.43L534.46 654.43L534.46 654.91L534.46 654.91L533.5 654.91z" stroke="none" fill="#000000" fill-rule="evenodd" /><path id="83" transform="matrix(1 0 0 -1 0 841)" d="M60.984 626.57L61.944 626.57L61.944 626.57L61.944 654.434L61.944 654.434L60.984 654.434z" stroke="none" fill="#000000" fill-rule="evenodd" /><path id="84" transform="matrix(1 0 0 -1 0 841)" d="M117.17 626.57L117.65 626.57L117.65 626.57L117.65 654.434L117.65 654.434L117.17 654.434z" stroke="none" fill="#000000" fill-rule="evenodd" /><path id="85" transform="matrix(1 0 0 -1 0 841)" d="M382.94 626.57L383.42 626.57L383.42 626.57L383.42 654.434L383.42 654.434L382.94 654.434z" stroke="none" fill="#000000" fill-rule="evenodd" /><path id="86" transform="matrix(1 0 0 -1 0 841)" d="M533.5 626.57L534.46 626.57L534.46 626.57L534.46 654.434L534.46 654.434L533.5 654.434z" stroke="none" fill="#000000" fill-rule="evenodd" /><g clip-path="url(#42)"><g clip-path="url(#43)"></g><g clip-path="url(#44)"></g></g><g clip-path="url(#45)"><g clip-path="url(#46)"></g><g clip-path="url(#47)"></g><g clip-path="url(#48)"></g></g><path id="96" transform="matrix(1 0 0 -1 0 841)" d="M60.984 625.61L61.944 625.61L61.944 625.61L61.944 626.57L61.944 626.57L60.984 626.57z" stroke="none" fill="#000000" fill-rule="evenodd" /><path id="97" transform="matrix(1 0 0 -1 0 841)" d="M117.17 625.61L117.65 625.61L117.65 625.61L117.65 626.57L117.65 626.57L117.17 626.57z" stroke="none" fill="#000000" fill-rule="evenodd" /><path id="98" transform="matrix(1 0 0 -1 0 841)" d="M117.65 626.09L382.71 626.09L382.71 626.09L382.71 626.57L382.71 626.57L117.65 626.57z" stroke="none" fill="#000000" fill-rule="evenodd" /><path id="99" transform="matrix(1 0 0 -1 0 841)" d="M382.7 625.61L383.66 625.61L383.66 625.61L383.66 626.09L383.66 626.09L382.7 626.09z" stroke="none" fill="#000000" fill-rule="evenodd" /><path id="100" transform="matrix(1 0 0 -1 0 841)" d="M382.7 626.09L383.18 626.09L383.18 626.09L383.18 626.57L383.18 626.57L382.7 626.57z" stroke="none" fill="#000000" fill-rule="evenodd" /><path id="101" transform="matrix(1 0 0 -1 0 841)" d="M383.18 626.09L383.66 626.09L383.66 626.09L383.66 626.57L383.66 626.57L383.18 626.57z" stroke="none" fill="#000000" fill-rule="evenodd" /><path id="102" transform="matrix(1 0 0 -1 0 841)" d="M383.66 626.09L384.14 626.09L384.14 626.09L384.14 626.57L384.14 626.57L383.66 626.57z" stroke="none" fill="#000000" fill-rule="evenodd" /><path id="103" transform="matrix(1 0 0 -1 0 841)" d="M384.14 626.09L533.49 626.09L533.49 626.09L533.49 626.57L533.49 626.57L384.14 626.57z" stroke="none" fill="#000000" fill-rule="evenodd" /><path id="104" transform="matrix(1 0 0 -1 0 841)" d="M533.5 625.61L534.46 625.61L534.46 625.61L534.46 626.57L534.46 626.57L533.5 626.57z" stroke="none" fill="#000000" fill-rule="evenodd" /><path id="105" transform="matrix(1 0 0 -1 0 841)" d="M60.984 610.01L61.944 610.01L61.944 610.01L61.944 625.61L61.944 625.61L60.984 625.61z" stroke="none" fill="#000000" fill-rule="evenodd" /><path id="106" transform="matrix(1 0 0 -1 0 841)" d="M117.17 610.01L117.65 610.01L117.65 610.01L117.65 625.61L117.65 625.61L117.17 625.61z" stroke="none" fill="#000000" fill-rule="evenodd" /><path id="107" transform="matrix(1 0 0 -1 0 841)" d="M382.7 610.01L383.66 610.01L383.66 610.01L383.66 625.61L383.66 625.61L382.7 625.61z" stroke="none" fill="#000000" fill-rule="evenodd" /><path id="108" transform="matrix(1 0 0 -1 0 841)" d="M533.5 610.01L534.46 610.01L534.46 610.01L534.46 625.61L534.46 625.61L533.5 625.61z" stroke="none" fill="#000000" fill-rule="evenodd" /><g clip-path="url(#49)"><g clip-path="url(#50)"></g><g clip-path="url(#51)"></g></g><g clip-path="url(#52)"><g clip-path="url(#53)"></g><g clip-path="url(#54)"></g></g><g clip-path="url(#55)"><g clip-path="url(#56)"></g><g clip-path="url(#57)"></g></g><path id="121" transform="matrix(1 0 0 -1 0 841)" d="M60.984 609.05L61.944 609.05L61.944 609.05L61.944 610.01L61.944 610.01L60.984 610.01z" stroke="none" fill="#000000" fill-rule="evenodd" /><path id="122" transform="matrix(1 0 0 -1 0 841)" d="M117.17 609.05L117.65 609.05L117.65 609.05L117.65 610.01L117.65 610.01L117.17 610.01z" stroke="none" fill="#000000" fill-rule="evenodd" /><path id="123" transform="matrix(1 0 0 -1 0 841)" d="M117.65 609.53L254.5 609.53L254.5 609.53L254.5 610.01L254.5 610.01L117.65 610.01z" stroke="none" fill="#000000" fill-rule="evenodd" /><path id="124" transform="matrix(1 0 0 -1 0 841)" d="M254.5 609.05L254.98 609.05L254.98 609.05L254.98 609.53L254.98 609.53L254.5 609.53z" stroke="none" fill="#000000" fill-rule="evenodd" /><path id="125" transform="matrix(1 0 0 -1 0 841)" d="M254.5 609.53L254.98 609.53L254.98 609.53L254.98 610.01L254.98 610.01L254.5 610.01z" stroke="none" fill="#000000" fill-rule="evenodd" /><path id="126" transform="matrix(1 0 0 -1 0 841)" d="M254.98 609.53L382.71 609.53L382.71 609.53L382.71 610.01L382.71 610.01L254.98 610.01z" stroke="none" fill="#000000" fill-rule="evenodd" /><path id="127" transform="matrix(1 0 0 -1 0 841)" d="M382.94 609.05L383.42 609.05L383.42 609.05L383.42 609.53L383.42 609.53L382.94 609.53z" stroke="none" fill="#000000" fill-rule="evenodd" /><path id="128" transform="matrix(1 0 0 -1 0 841)" d="M382.7 609.53L383.18 609.53L383.18 609.53L383.18 610.01L383.18 610.01L382.7 610.01z" stroke="none" fill="#000000" fill-rule="evenodd" /><path id="129" transform="matrix(1 0 0 -1 0 841)" d="M383.18 609.53L383.66 609.53L383.66 609.53L383.66 610.01L383.66 610.01L383.18 610.01z" stroke="none" fill="#000000" fill-rule="evenodd" /><path id="130" transform="matrix(1 0 0 -1 0 841)" d="M383.66 609.53L384.14 609.53L384.14 609.53L384.14 610.01L384.14 610.01L383.66 610.01z" stroke="none" fill="#000000" fill-rule="evenodd" /><path id="131" transform="matrix(1 0 0 -1 0 841)" d="M384.14 609.53L533.49 609.53L533.49 609.53L533.49 610.01L533.49 610.01L384.14 610.01z" stroke="none" fill="#000000" fill-rule="evenodd" /><path id="132" transform="matrix(1 0 0 -1 0 841)" d="M533.5 609.05L534.46 609.05L534.46 609.05L534.46 610.01L534.46 610.01L533.5 610.01z" stroke="none" fill="#000000" fill-rule="evenodd" /><path id="133" transform="matrix(1 0 0 -1 0 841)" d="M60.984 587.45L61.944 587.45L61.944 587.45L61.944 609.05L61.944 609.05L60.984 609.05z" stroke="none" fill="#000000" fill-rule="evenodd" /><path id="134" transform="matrix(1 0 0 -1 0 841)" d="M117.17 587.45L117.65 587.45L117.65 587.45L117.65 609.05L117.65 609.05L117.17 609.05z" stroke="none" fill="#000000" fill-rule="evenodd" /><path id="135" transform="matrix(1 0 0 -1 0 841)" d="M254.5 587.45L254.98 587.45L254.98 587.45L254.98 609.05L254.98 609.05L254.5 609.05z" stroke="none" fill="#000000" fill-rule="evenodd" /><path id="136" transform="matrix(1 0 0 -1 0 841)" d="M382.94 587.45L383.42 587.45L383.42 587.45L383.42 609.05L383.42 609.05L382.94 609.05z" stroke="none" fill="#000000" fill-rule="evenodd" /><path id="137" transform="matrix(1 0 0 -1 0 841)" d="M533.5 587.45L534.46 587.45L534.46 587.45L534.46 609.05L534.46 609.05L533.5 609.05z" stroke="none" fill="#000000" fill-rule="evenodd" /><g clip-path="url(#58)"><g clip-path="url(#59)"></g><g clip-path="url(#60)"></g><g clip-path="url(#61)"></g><g clip-path="url(#62)"></g><g clip-path="url(#63)"></g></g><path id="170" transform="matrix(1 0 0 -1 0 841)" d="M60.984 586.49L61.944 586.49L61.944 586.49L61.944 587.45L61.944 587.45L60.984 587.45z" stroke="none" fill="#000000" fill-rule="evenodd" /><path id="171" transform="matrix(1 0 0 -1 0 841)" d="M117.17 586.49L117.65 586.49L117.65 586.49L117.65 587.45L117.65 587.45L117.17 587.45z" stroke="none" fill="#000000" fill-rule="evenodd" /><path id="172" transform="matrix(1 0 0 -1 0 841)" d="M117.65 586.97L254.5 586.97L254.5 586.97L254.5 587.45L254.5 587.45L117.65 587.45z" stroke="none" fill="#000000" fill-rule="evenodd" /><path id="173" transform="matrix(1 0 0 -1 0 841)" d="M254.5 586.97L254.98 586.97L254.98 586.97L254.98 587.45L254.98 587.45L254.5 587.45z" stroke="none" fill="#000000" fill-rule="evenodd" /><path id="174" transform="matrix(1 0 0 -1 0 841)" d="M254.98 586.97L382.95 586.97L382.95 586.97L382.95 587.45L382.95 587.45L254.98 587.45z" stroke="none" fill="#000000" fill-rule="evenodd" /><path id="175" transform="matrix(1 0 0 -1 0 841)" d="M382.94 586.97L383.42 586.97L383.42 586.97L383.42 587.45L383.42 587.45L382.94 587.45z" stroke="none" fill="#000000" fill-rule="evenodd" /><path id="176" transform="matrix(1 0 0 -1 0 841)" d="M383.42 586.97L533.49 586.97L533.49 586.97L533.49 587.45L533.49 587.45L383.42 587.45z" stroke="none" fill="#000000" fill-rule="evenodd" /><path id="177" transform="matrix(1 0 0 -1 0 841)" d="M533.5 586.49L534.46 586.49L534.46 586.49L534.46 587.45L534.46 587.45L533.5 587.45z" stroke="none" fill="#000000" fill-rule="evenodd" /><path id="178" transform="matrix(1 0 0 -1 0 841)" d="M60.984 566.33L61.944 566.33L61.944 566.33L61.944 586.49L61.944 586.49L60.984 586.49z" stroke="none" fill="#000000" fill-rule="evenodd" /><path id="179" transform="matrix(1 0 0 -1 0 841)" d="M117.17 566.33L117.65 566.33L117.65 566.33L117.65 586.49L117.65 586.49L117.17 586.49z" stroke="none" fill="#000000" fill-rule="evenodd" /><path id="180" transform="matrix(1 0 0 -1 0 841)" d="M533.5 566.33L534.46 566.33L534.46 566.33L534.46 586.49L534.46 586.49L533.5 586.49z" stroke="none" fill="#000000" fill-rule="evenodd" /><g clip-path="url(#64)"><g clip-path="url(#65)"></g><g clip-path="url(#66)"></g></g><g clip-path="url(#67)"></g><g clip-path="url(#68)"></g><g clip-path="url(#69)"></g><g clip-path="url(#70)"></g><path id="187" transform="matrix(1 0 0 -1 0 841)" d="M60.984 565.37L61.944 565.37L61.944 565.37L61.944 566.33L61.944 566.33L60.984 566.33z" stroke="none" fill="#000000" fill-rule="evenodd" /><path id="188" transform="matrix(1 0 0 -1 0 841)" d="M61.944 565.37L117.168 565.37L117.168 565.37L117.168 566.33L117.168 566.33L61.944 566.33z" stroke="none" fill="#000000" fill-rule="evenodd" /><path id="189" transform="matrix(1 0 0 -1 0 841)" d="M117.17 565.37L118.13 565.37L118.13 565.37L118.13 566.33L118.13 566.33L117.17 566.33z" stroke="none" fill="#000000" fill-rule="evenodd" /><path id="190" transform="matrix(1 0 0 -1 0 841)" d="M118.13 565.37L148.85 565.37L148.85 565.37L148.85 566.33L148.85 566.33L118.13 566.33z" stroke="none" fill="#000000" fill-rule="evenodd" /><path id="191" transform="matrix(1 0 0 -1 0 841)" d="M148.85 565.37L149.81 565.37L149.81 565.37L149.81 566.33L149.81 566.33L148.85 566.33z" stroke="none" fill="#000000" fill-rule="evenodd" /><path id="192" transform="matrix(1 0 0 -1 0 841)" d="M149.81 565.37L249.218 565.37L249.218 565.37L249.218 566.33L249.218 566.33L149.81 566.33z" stroke="none" fill="#000000" fill-rule="evenodd" /><path id="193" transform="matrix(1 0 0 -1 0 841)" d="M249.22 565.37L250.18 565.37L250.18 565.37L250.18 566.33L250.18 566.33L249.22 566.33z" stroke="none" fill="#000000" fill-rule="evenodd" /><path id="194" transform="matrix(1 0 0 -1 0 841)" d="M250.18 565.37L354.15 565.37L354.15 565.37L354.15 566.33L354.15 566.33L250.18 566.33z" stroke="none" fill="#000000" fill-rule="evenodd" /><path id="195" transform="matrix(1 0 0 -1 0 841)" d="M354.14 565.37L355.1 565.37L355.1 565.37L355.1 566.33L355.1 566.33L354.14 566.33z" stroke="none" fill="#000000" fill-rule="evenodd" /><path id="196" transform="matrix(1 0 0 -1 0 841)" d="M355.1 565.37L440.564 565.37L440.564 565.37L440.564 566.33L440.564 566.33L355.1 566.33z" stroke="none" fill="#000000" fill-rule="evenodd" /><path id="197" transform="matrix(1 0 0 -1 0 841)" d="M440.57 565.37L441.53 565.37L441.53 565.37L441.53 566.33L441.53 566.33L440.57 566.33z" stroke="none" fill="#000000" fill-rule="evenodd" /><path id="198" transform="matrix(1 0 0 -1 0 841)" d="M441.53 565.37L533.498 565.37L533.498 565.37L533.498 566.33L533.498 566.33L441.53 566.33z" stroke="none" fill="#000000" fill-rule="evenodd" /><path id="199" transform="matrix(1 0 0 -1 0 841)" d="M533.5 565.37L534.46 565.37L534.46 565.37L534.46 566.33L534.46 566.33L533.5 566.33z" stroke="none" fill="#000000" fill-rule="evenodd" /><path id="200" transform="matrix(1 0 0 -1 0 841)" d="M60.984 535.34L61.944 535.34L61.944 535.34L61.944 565.364L61.944 565.364L60.984 565.364z" stroke="none" fill="#000000" fill-rule="evenodd" /><path id="201" transform="matrix(1 0 0 -1 0 841)" d="M148.85 535.34L149.33 535.34L149.33 535.34L149.33 565.364L149.33 565.364L148.85 565.364z" stroke="none" fill="#000000" fill-rule="evenodd" /><path id="202" transform="matrix(1 0 0 -1 0 841)" d="M249.22 535.34L249.7 535.34L249.7 535.34L249.7 565.364L249.7 565.364L249.22 565.364z" stroke="none" fill="#000000" fill-rule="evenodd" /><path id="203" transform="matrix(1 0 0 -1 0 841)" d="M354.14 535.34L354.62 535.34L354.62 535.34L354.62 565.364L354.62 565.364L354.14 565.364z" stroke="none" fill="#000000" fill-rule="evenodd" /><path id="204" transform="matrix(1 0 0 -1 0 841)" d="M440.57 535.34L441.53 535.34L441.53 535.34L441.53 565.364L441.53 565.364L440.57 565.364z" stroke="none" fill="#000000" fill-rule="evenodd" /><path id="205" transform="matrix(1 0 0 -1 0 841)" d="M533.5 535.34L534.46 535.34L534.46 535.34L534.46 565.364L534.46 565.364L533.5 565.364z" stroke="none" fill="#000000" fill-rule="evenodd" /><g clip-path="url(#71)"><g clip-path="url(#72)"></g><g clip-path="url(#73)"></g></g><g clip-path="url(#74)"></g><g clip-path="url(#75)"></g><g clip-path="url(#76)"></g><g clip-path="url(#77)"></g><path id="210" transform="matrix(1 0 0 -1 0 841)" d="M60.984 534.86L61.944 534.86L61.944 534.86L61.944 535.34L61.944 535.34L60.984 535.34z" stroke="none" fill="#000000" fill-rule="evenodd" /><path id="211" transform="matrix(1 0 0 -1 0 841)" d="M61.944 534.86L148.848 534.86L148.848 534.86L148.848 535.34L148.848 535.34L61.944 535.34z" stroke="none" fill="#000000" fill-rule="evenodd" /><path id="212" transform="matrix(1 0 0 -1 0 841)" d="M148.85 534.86L149.33 534.86L149.33 534.86L149.33 535.34L149.33 535.34L148.85 535.34z" stroke="none" fill="#000000" fill-rule="evenodd" /><path id="213" transform="matrix(1 0 0 -1 0 841)" d="M149.33 534.86L249.218 534.86L249.218 534.86L249.218 535.34L249.218 535.34L149.33 535.34z" stroke="none" fill="#000000" fill-rule="evenodd" /><path id="214" transform="matrix(1 0 0 -1 0 841)" d="M249.22 534.86L249.7 534.86L249.7 534.86L249.7 535.34L249.7 535.34L249.22 535.34z" stroke="none" fill="#000000" fill-rule="evenodd" /><path id="215" transform="matrix(1 0 0 -1 0 841)" d="M249.7 534.86L354.15 534.86L354.15 534.86L354.15 535.34L354.15 535.34L249.7 535.34z" stroke="none" fill="#000000" fill-rule="evenodd" /><path id="216" transform="matrix(1 0 0 -1 0 841)" d="M354.14 534.86L354.62 534.86L354.62 534.86L354.62 535.34L354.62 535.34L354.14 535.34z" stroke="none" fill="#000000" fill-rule="evenodd" /><path id="217" transform="matrix(1 0 0 -1 0 841)" d="M354.62 534.86L440.564 534.86L440.564 534.86L440.564 535.34L440.564 535.34L354.62 535.34z" stroke="none" fill="#000000" fill-rule="evenodd" /><path id="218" transform="matrix(1 0 0 -1 0 841)" d="M440.57 534.86L441.53 534.86L441.53 534.86L441.53 535.34L441.53 535.34L440.57 535.34z" stroke="none" fill="#000000" fill-rule="evenodd" /><path id="219" transform="matrix(1 0 0 -1 0 841)" d="M441.53 534.86L533.498 534.86L533.498 534.86L533.498 535.34L533.498 535.34L441.53 535.34z" stroke="none" fill="#000000" fill-rule="evenodd" /><path id="220" transform="matrix(1 0 0 -1 0 841)" d="M533.5 534.86L534.46 534.86L534.46 534.86L534.46 535.34L534.46 535.34L533.5 535.34z" stroke="none" fill="#000000" fill-rule="evenodd" /><path id="221" transform="matrix(1 0 0 -1 0 841)" d="M60.984 512.54L61.944 512.54L61.944 512.54L61.944 534.86L61.944 534.86L60.984 534.86z" stroke="none" fill="#000000" fill-rule="evenodd" /><path id="222" transform="matrix(1 0 0 -1 0 841)" d="M148.85 512.54L149.33 512.54L149.33 512.54L149.33 534.86L149.33 534.86L148.85 534.86z" stroke="none" fill="#000000" fill-rule="evenodd" /><path id="223" transform="matrix(1 0 0 -1 0 841)" d="M249.22 512.54L249.7 512.54L249.7 512.54L249.7 534.86L249.7 534.86L249.22 534.86z" stroke="none" fill="#000000" fill-rule="evenodd" /><path id="224" transform="matrix(1 0 0 -1 0 841)" d="M354.14 512.54L354.62 512.54L354.62 512.54L354.62 534.86L354.62 534.86L354.14 534.86z" stroke="none" fill="#000000" fill-rule="evenodd" /><path id="225" transform="matrix(1 0 0 -1 0 841)" d="M440.57 512.54L441.53 512.54L441.53 512.54L441.53 534.86L441.53 534.86L440.57 534.86z" stroke="none" fill="#000000" fill-rule="evenodd" /><path id="226" transform="matrix(1 0 0 -1 0 841)" d="M533.5 512.54L534.46 512.54L534.46 512.54L534.46 534.86L534.46 534.86L533.5 534.86z" stroke="none" fill="#000000" fill-rule="evenodd" /><g clip-path="url(#78)"><g clip-path="url(#79)"></g><g clip-path="url(#80)"></g></g><path id="250" transform="matrix(1 0 0 -1 0 841)" d="M60.984 512.06L61.944 512.06L61.944 512.06L61.944 512.54L61.944 512.54L60.984 512.54z" stroke="none" fill="#000000" fill-rule="evenodd" /><path id="251" transform="matrix(1 0 0 -1 0 841)" d="M61.944 512.06L148.848 512.06L148.848 512.06L148.848 512.54L148.848 512.54L61.944 512.54z" stroke="none" fill="#000000" fill-rule="evenodd" /><path id="252" transform="matrix(1 0 0 -1 0 841)" d="M148.85 512.06L149.33 512.06L149.33 512.06L149.33 512.54L149.33 512.54L148.85 512.54z" stroke="none" fill="#000000" fill-rule="evenodd" /><path id="253" transform="matrix(1 0 0 -1 0 841)" d="M149.33 512.06L249.218 512.06L249.218 512.06L249.218 512.54L249.218 512.54L149.33 512.54z" stroke="none" fill="#000000" fill-rule="evenodd" /><path id="254" transform="matrix(1 0 0 -1 0 841)" d="M249.22 512.06L249.7 512.06L249.7 512.06L249.7 512.54L249.7 512.54L249.22 512.54z" stroke="none" fill="#000000" fill-rule="evenodd" /><path id="255" transform="matrix(1 0 0 -1 0 841)" d="M249.7 512.06L354.15 512.06L354.15 512.06L354.15 512.54L354.15 512.54L249.7 512.54z" stroke="none" fill="#000000" fill-rule="evenodd" /><path id="256" transform="matrix(1 0 0 -1 0 841)" d="M354.14 512.06L354.62 512.06L354.62 512.06L354.62 512.54L354.62 512.54L354.14 512.54z" stroke="none" fill="#000000" fill-rule="evenodd" /><path id="257" transform="matrix(1 0 0 -1 0 841)" d="M354.62 512.06L440.564 512.06L440.564 512.06L440.564 512.54L440.564 512.54L354.62 512.54z" stroke="none" fill="#000000" fill-rule="evenodd" /><path id="258" transform="matrix(1 0 0 -1 0 841)" d="M440.57 512.06L441.05 512.06L441.05 512.06L441.05 512.54L441.05 512.54L440.57 512.54z" stroke="none" fill="#000000" fill-rule="evenodd" /><path id="259" transform="matrix(1 0 0 -1 0 841)" d="M441.05 512.06L533.498 512.06L533.498 512.06L533.498 512.54L533.498 512.54L441.05 512.54z" stroke="none" fill="#000000" fill-rule="evenodd" /><path id="260" transform="matrix(1 0 0 -1 0 841)" d="M533.5 512.06L534.46 512.06L534.46 512.06L534.46 512.54L534.46 512.54L533.5 512.54z" stroke="none" fill="#000000" fill-rule="evenodd" /><path id="261" transform="matrix(1 0 0 -1 0 841)" d="M60.984 496.46L61.944 496.46L61.944 496.46L61.944 512.06L61.944 512.06L60.984 512.06z" stroke="none" fill="#000000" fill-rule="evenodd" /><path id="262" transform="matrix(1 0 0 -1 0 841)" d="M533.5 496.46L534.46 496.46L534.46 496.46L534.46 512.06L534.46 512.06L533.5 512.06z" stroke="none" fill="#000000" fill-rule="evenodd" /><g clip-path="url(#81)"></g><path id="263" transform="matrix(1 0 0 -1 0 841)" d="M60.984 495.98L61.944 495.98L61.944 495.98L61.944 496.46L61.944 496.46L60.984 496.46z" stroke="none" fill="#000000" fill-rule="evenodd" /><path id="264" transform="matrix(1 0 0 -1 0 841)" d="M61.944 495.98L533.494 495.98L533.494 495.98L533.494 496.46L533.494 496.46L61.944 496.46z" stroke="none" fill="#000000" fill-rule="evenodd" /><path id="265" transform="matrix(1 0 0 -1 0 841)" d="M533.5 495.98L534.46 495.98L534.46 495.98L534.46 496.46L534.46 496.46L533.5 496.46z" stroke="none" fill="#000000" fill-rule="evenodd" /><path id="266" transform="matrix(1 0 0 -1 0 841)" d="M60.984 293.11L61.944 293.11L61.944 293.11L61.944 495.98L61.944 495.98L60.984 495.98z" stroke="none" fill="#000000" fill-rule="evenodd" /><path id="267" transform="matrix(1 0 0 -1 0 841)" d="M533.5 293.11L534.46 293.11L534.46 293.11L534.46 495.98L534.46 495.98L533.5 495.98z" stroke="none" fill="#000000" fill-rule="evenodd" /><g clip-path="url(#82)"><g clip-path="url(#83)"></g><g clip-path="url(#84)"></g><g clip-path="url(#85)"></g><g clip-path="url(#86)"></g><g clip-path="url(#87)"></g><g clip-path="url(#88)"></g><g clip-path="url(#89)"></g></g><path id="304" transform="matrix(1 0 0 -1 0 841)" d="M60.984 292.15L61.944 292.15L61.944 292.15L61.944 293.11L61.944 293.11L60.984 293.11z" stroke="none" fill="#000000" fill-rule="evenodd" /><path id="305" transform="matrix(1 0 0 -1 0 841)" d="M61.944 292.15L533.494 292.15L533.494 292.15L533.494 293.11L533.494 293.11L61.944 293.11z" stroke="none" fill="#000000" fill-rule="evenodd" /><path id="306" transform="matrix(1 0 0 -1 0 841)" d="M533.5 292.15L534.46 292.15L534.46 292.15L534.46 293.11L534.46 293.11L533.5 293.11z" stroke="none" fill="#000000" fill-rule="evenodd" /><path id="307" transform="matrix(1 0 0 -1 0 841)" d="M60.984 198.29L61.944 198.29L61.944 198.29L61.944 292.154L61.944 292.154L60.984 292.154z" stroke="none" fill="#000000" fill-rule="evenodd" /><path id="308" transform="matrix(1 0 0 -1 0 841)" d="M533.5 198.29L534.46 198.29L534.46 198.29L534.46 292.154L534.46 292.154L533.5 292.154z" stroke="none" fill="#000000" fill-rule="evenodd" /><g clip-path="url(#90)"><g clip-path="url(#91)"></g><g clip-path="url(#92)"></g><g clip-path="url(#93)"></g><g clip-path="url(#94)"></g><g clip-path="url(#95)"></g><g clip-path="url(#96)"></g><g clip-path="url(#97)"></g><g clip-path="url(#98)"></g><g clip-path="url(#99)"></g><g clip-path="url(#100)"></g><g clip-path="url(#101)"></g><g clip-path="url(#102)"></g></g><path id="332" transform="matrix(1 0 0 -1 0 841)" d="M60.984 197.33L61.944 197.33L61.944 197.33L61.944 198.29L61.944 198.29L60.984 198.29z" stroke="none" fill="#000000" fill-rule="evenodd" /><path id="333" transform="matrix(1 0 0 -1 0 841)" d="M61.944 197.33L533.494 197.33L533.494 197.33L533.494 198.29L533.494 198.29L61.944 198.29z" stroke="none" fill="#000000" fill-rule="evenodd" /><path id="334" transform="matrix(1 0 0 -1 0 841)" d="M533.5 197.33L534.46 197.33L534.46 197.33L534.46 198.29L534.46 198.29L533.5 198.29z" stroke="none" fill="#000000" fill-rule="evenodd" /><path id="335" transform="matrix(1 0 0 -1 0 841)" d="M60.984 134.93L61.944 134.93L61.944 134.93L61.944 197.33L61.944 197.33L60.984 197.33z" stroke="none" fill="#000000" fill-rule="evenodd" /><path id="336" transform="matrix(1 0 0 -1 0 841)" d="M533.5 134.93L534.46 134.93L534.46 134.93L534.46 197.33L534.46 197.33L533.5 197.33z" stroke="none" fill="#000000" fill-rule="evenodd" /><g clip-path="url(#103)"><g clip-path="url(#104)"></g><g clip-path="url(#105)"></g><g clip-path="url(#106)"></g><g clip-path="url(#107)"></g><g clip-path="url(#108)"></g><g clip-path="url(#109)"></g><g clip-path="url(#110)"></g><g clip-path="url(#111)"></g><g clip-path="url(#112)"></g><g clip-path="url(#113)"></g><g clip-path="url(#114)"></g><g clip-path="url(#115)"></g><g clip-path="url(#116)"></g><g clip-path="url(#117)"></g><g clip-path="url(#118)"></g></g><path id="352" transform="matrix(1 0 0 -1 0 841)" d="M60.984 133.97L61.944 133.97L61.944 133.97L61.944 134.93L61.944 134.93L60.984 134.93z" stroke="none" fill="#000000" fill-rule="evenodd" /><path id="353" transform="matrix(1 0 0 -1 0 841)" d="M60.984 133.97L61.944 133.97L61.944 133.97L61.944 134.93L61.944 134.93L60.984 134.93z" stroke="none" fill="#000000" fill-rule="evenodd" /><path id="354" transform="matrix(1 0 0 -1 0 841)" d="M61.944 133.97L62.904 133.97L62.904 133.97L62.904 134.93L62.904 134.93L61.944 134.93z" stroke="none" fill="#000000" fill-rule="evenodd" /><path id="355" transform="matrix(1 0 0 -1 0 841)" d="M62.904 133.97L533.494 133.97L533.494 133.97L533.494 134.93L533.494 134.93L62.904 134.93z" stroke="none" fill="#000000" fill-rule="evenodd" /><path id="356" transform="matrix(1 0 0 -1 0 841)" d="M533.5 133.97L534.46 133.97L534.46 133.97L534.46 134.93L534.46 134.93L533.5 134.93z" stroke="none" fill="#000000" fill-rule="evenodd" /></g><g clip-path="url(#119)"><g clip-path="url(#120)"></g></g><g clip-path="url(#121)"><g clip-path="url(#122)"></g></g><g clip-path="url(#123)"></g><g clip-path="url(#124)"><g clip-path="url(#125)"></g></g><g clip-path="url(#126)"></g><g clip-path="url(#127)"><g clip-path="url(#128)"></g></g><g clip-path="url(#129)"><g clip-path="url(#130)"></g></g><g clip-path="url(#131)"><g clip-path="url(#132)"></g></g><g clip-path="url(#133)"></g><g clip-path="url(#134)"><g clip-path="url(#135)"></g></g><g clip-path="url(#136)"><g clip-path="url(#137)"></g></g><g clip-path="url(#138)"><g clip-path="url(#139)"></g></g><g clip-path="url(#140)"></g><g clip-path="url(#141)"><g clip-path="url(#142)"></g></g><g clip-path="url(#143)"><g clip-path="url(#144)"></g></g><g clip-path="url(#145)"></g><g clip-path="url(#146)"></g><g clip-path="url(#147)"></g><g clip-path="url(#148)"><g clip-path="url(#149)"></g></g><g clip-path="url(#150)"><g clip-path="url(#151)"></g></g><g clip-path="url(#152)"></g><g clip-path="url(#153)"><g clip-path="url(#154)"></g></g><g clip-path="url(#155)"></g><g clip-path="url(#156)"><g clip-path="url(#157)"></g></g><g clip-path="url(#158)"></g><g clip-path="url(#159)"></g><g clip-path="url(#160)"></g></g></g></svg>