<svg xmlns="http://www.w3.org/2000/svg" xmlns:xlink="http://www.w3.org/1999/xlink" id="body_1" preserveAspectRatio="xMinYMin meet" viewBox="0 0 793 1121"><defs><clipPath id="1"><path id="" clip-rule="evenodd" transform="matrix(1 0 0 1 0 0)" d="M0 841L0 0L0 0L595 0L595 0L595 841L595 841L0 841z" /></clipPath><clipPath id="2"><path id="" clip-rule="evenodd" transform="matrix(1 0 0 1 0 0)" d="M70.87 108.35L524.41 108.35L524.41 108.35L524.41 88.90997L524.41 88.90997L70.87 88.90997z" /></clipPath><clipPath id="3"><path id="" clip-rule="evenodd" transform="matrix(1 0 0 1 0 0)" d="M70.87 108.35L524.41 108.35L524.41 108.35L524.41 88.90997L524.41 88.90997L70.87 88.90997z" /></clipPath><clipPath id="4"><path id="" clip-rule="evenodd" transform="matrix(1 0 0 1 0 0)" d="M70.87 523.07L524.41 523.07L524.41 523.07L524.41 504.59L524.41 504.59L70.87 504.59z" /></clipPath><clipPath id="5"><path id="" clip-rule="evenodd" transform="matrix(1 0 0 1 0 0)" d="M70.87 503.73L524.41 503.73L524.41 503.73L524.41 485.25L524.41 485.25L70.87 485.25z" /></clipPath><clipPath id="6"><path id="" clip-rule="evenodd" transform="matrix(1 0 0 1 0 0)" d="M70.87 503.73L524.41 503.73L524.41 503.73L524.41 485.25L524.41 485.25L70.87 485.25z" /></clipPath><clipPath id="7"><path id="" clip-rule="evenodd" transform="matrix(1 0 0 1 0 0)" d="M192.92 483.03L524.07 483.03L524.07 483.03L524.07 464.55L524.07 464.55L192.92 464.55z" /></clipPath><clipPath id="8"><path id="" clip-rule="evenodd" transform="matrix(1 0 0 1 0 0)" d="M192.92 483.03L524.07 483.03L524.07 483.03L524.07 464.55L524.07 464.55L192.92 464.55z" /></clipPath><clipPath id="9"><path id="" clip-rule="evenodd" transform="matrix(1 0 0 1 0 0)" d="M308.49 458.33L326.91 458.33L326.91 458.33L326.91 439.85L326.91 439.85L308.49 439.85z" /></clipPath><clipPath id="10"><path id="" clip-rule="evenodd" transform="matrix(1 0 0 1 0 0)" d="M308.49 458.33L326.91 458.33L326.91 458.33L326.91 439.85L326.91 439.85L308.49 439.85z" /></clipPath><clipPath id="11"><path id="" clip-rule="evenodd" transform="matrix(1 0 0 1 0 0)" d="M341.18 458.33L359.6 458.33L359.6 458.33L359.6 439.85L359.6 439.85L341.18 439.85z" /></clipPath><clipPath id="12"><path id="" clip-rule="evenodd" transform="matrix(1 0 0 1 0 0)" d="M341.18 458.33L359.6 458.33L359.6 458.33L359.6 439.85L359.6 439.85L341.18 439.85z" /></clipPath><clipPath id="13"><path id="" clip-rule="evenodd" transform="matrix(1 0 0 1 0 0)" d="M475.46 810.85L493.88 810.85L493.88 810.85L493.88 792.37L493.88 792.37L475.46 792.37z" /></clipPath><clipPath id="14"><path id="" clip-rule="evenodd" transform="matrix(1 0 0 1 0 0)" d="M475.46 810.85L493.88 810.85L493.88 810.85L493.88 792.37L493.88 792.37L475.46 792.37z" /></clipPath><clipPath id="15"><path id="" clip-rule="evenodd" transform="matrix(1 0 0 1 0 0)" d="M70.87 158.47L343.9 158.47L343.9 158.47L343.9 139.03L343.9 139.03L70.87 139.03z" /></clipPath><clipPath id="16"><path id="" clip-rule="evenodd" transform="matrix(1 0 0 1 0 0)" d="M70.87 158.47L343.9 158.47L343.9 158.47L343.9 139.03L343.9 139.03L70.87 139.03z" /></clipPath><clipPath id="17"><path id="" clip-rule="evenodd" transform="matrix(1 0 0 1 0 0)" d="M426.42 810.49L457.55 810.49L457.55 810.49L457.55 792.01L457.55 792.01L426.42 792.01z" /></clipPath><clipPath id="18"><path id="" clip-rule="evenodd" transform="matrix(1 0 0 1 0 0)" d="M426.42 810.49L457.55 810.49L457.55 810.49L457.55 792.01L457.55 792.01L426.42 792.01z" /></clipPath><clipPath id="19"><path id="" clip-rule="evenodd" transform="matrix(1 0 0 1 0 0)" d="M266.45 457.97L293.95 457.97L293.95 457.97L293.95 439.49L293.95 439.49L266.45 439.49z" /></clipPath><clipPath id="20"><path id="" clip-rule="evenodd" transform="matrix(1 0 0 1 0 0)" d="M266.45 457.97L293.95 457.97L293.95 457.97L293.95 439.49L293.95 439.49L266.45 439.49z" /></clipPath><clipPath id="21"><path id="" clip-rule="evenodd" transform="matrix(1 0 0 1 0 0)" d="M71.24 581.76L524.78 581.76L524.78 581.76L524.78 562.32L524.78 562.32L71.24 562.32z" /></clipPath><clipPath id="22"><path id="" clip-rule="evenodd" transform="matrix(1 0 0 1 0 0)" d="M70.87 332.72L524.41 332.72L524.41 332.72L524.41 313.28L524.41 313.28L70.87 313.28z" /></clipPath><clipPath id="23"><path id="" clip-rule="evenodd" transform="matrix(1 0 0 1 0 0)" d="M70.87 561.72L524.41 561.72L524.41 561.72L524.41 542.28L524.41 542.28L70.87 542.28z" /></clipPath><clipPath id="24"><path id="" clip-rule="evenodd" transform="matrix(1 0 0 1 0 0)" d="M70.87 308.04L524.41 308.04L524.41 308.04L524.41 288.6L524.41 288.6L70.87 288.6z" /></clipPath><clipPath id="25"><path id="" clip-rule="evenodd" transform="matrix(1 0 0 1 0 0)" d="M70.87 541.68L524.41 541.68L524.41 541.68L524.41 523.2L524.41 523.2L70.87 523.2z" /></clipPath><clipPath id="26"><path id="" clip-rule="evenodd" transform="matrix(1 0 0 1 0 0)" d="M159.55 407.52L524.56 407.52L524.56 407.52L524.56 387.66L524.56 387.66L159.55 387.66z" /></clipPath><clipPath id="27"><path id="" clip-rule="evenodd" transform="matrix(1 0 0 1 0 0)" d="M159.55 407.52L524.56 407.52L524.56 407.52L524.56 387.66L524.56 387.66L159.55 387.66z" /></clipPath><clipPath id="28"><path id="" clip-rule="evenodd" transform="matrix(1 0 0 1 0 0)" d="M70.87 282.91L524.41 282.91L524.41 282.91L524.41 263.47L524.41 263.47L70.87 263.47z" /></clipPath><clipPath id="29"><path id="" clip-rule="evenodd" transform="matrix(1 0 0 1 0 0)" d="M70.87 433.35L524.41 433.35L524.41 433.35L524.41 413.91L524.41 413.91L70.87 413.91z" /></clipPath><clipPath id="30"><path id="" clip-rule="evenodd" transform="matrix(1 0 0 1 0 0)" d="M510.16 810.85L528.58 810.85L528.58 810.85L528.58 792.37L528.58 792.37L510.16 792.37z" /></clipPath><clipPath id="31"><path id="" clip-rule="evenodd" transform="matrix(1 0 0 1 0 0)" d="M510.16 810.85L528.58 810.85L528.58 810.85L528.58 792.37L528.58 792.37L510.16 792.37z" /></clipPath><clipPath id="32"><path id="" clip-rule="evenodd" transform="matrix(1 0 0 1 0 0)" d="M70.87 257.95L524.41 257.95L524.41 257.95L524.41 238.51L524.41 238.51L70.87 238.51z" /></clipPath><clipPath id="33"><path id="" clip-rule="evenodd" transform="matrix(1 0 0 1 0 0)" d="M70.87 382.58L524.41 382.58L524.41 382.58L524.41 363.14L524.41 363.14L70.87 363.14z" /></clipPath><clipPath id="34"><path id="" clip-rule="evenodd" transform="matrix(1 0 0 1 0 0)" d="M70.87 232.99L524.41 232.99L524.41 232.99L524.41 213.55L524.41 213.55L70.87 213.55z" /></clipPath><clipPath id="35"><path id="" clip-rule="evenodd" transform="matrix(1 0 0 1 0 0)" d="M195.88 357.98L524.7 357.98L524.7 357.98L524.7 338.54L524.7 338.54L195.88 338.54z" /></clipPath><clipPath id="36"><path id="" clip-rule="evenodd" transform="matrix(1 0 0 1 0 0)" d="M195.88 357.98L524.7 357.98L524.7 357.98L524.7 338.54L524.7 338.54L195.88 338.54z" /></clipPath><clipPath id="37"><path id="" clip-rule="evenodd" transform="matrix(1 0 0 1 0 0)" d="M70.87 207.94L524.41 207.94L524.41 207.94L524.41 188.5L524.41 188.5L70.87 188.5z" /></clipPath><clipPath id="38"><path id="" clip-rule="evenodd" transform="matrix(1 0 0 1 0 0)" d="M70.87 207.94L524.41 207.94L524.41 207.94L524.41 188.5L524.41 188.5L70.87 188.5z" /></clipPath></defs><g transform="matrix(1.333333 0 0 1.333333 0 0)"><g clip-path="url(#1)"><g transform="matrix(0.3192691 0 0 0.3 265.9 456.4)"><g transform="matrix(1 0 0 1 0 0)"><image x="0" y="0" xlink:href="img_01.png" width="301" height="10" /></g></g><g transform="matrix(0.3199357 0 0 0.3125 68.9 104.95)"><g transform="matrix(1 0 0 1 0 0)"><image x="0" y="0" xlink:href="img_02.png" width="1866" height="16" /></g></g><g transform="matrix(0.3198614 0 0 0.3125 68.9 154.95)"><g transform="matrix(1 0 0 1 0 0)"><image x="0" y="0" xlink:href="img_03.png" width="866" height="16" /></g></g><g transform="matrix(0.3199357 0 0 0.3125 68.9 204.95)"><g transform="matrix(1 0 0 1 0 0)"><image x="0" y="0" xlink:href="img_02.png" width="1866" height="16" /></g></g><g transform="matrix(0.3199357 0 0 0.3125 68.9 229.95)"><g transform="matrix(1 0 0 1 0 0)"><image x="0" y="0" xlink:href="img_02.png" width="1866" height="16" /></g></g><g transform="matrix(0.3199357 0 0 0.3125 68.9 254.95)"><g transform="matrix(1 0 0 1 0 0)"><image x="0" y="0" xlink:href="img_02.png" width="1866" height="16" /></g></g><g transform="matrix(0.3199357 0 0 0.3125 68.9 279.95)"><g transform="matrix(1 0 0 1 0 0)"><image x="0" y="0" xlink:href="img_02.png" width="1866" height="16" /></g></g><g transform="matrix(0.3199357 0 0 0.3125 68.9 304.95)"><g transform="matrix(1 0 0 1 0 0)"><image x="0" y="0" xlink:href="img_02.png" width="1866" height="16" /></g></g><g transform="matrix(0.3199357 0 0 0.3125 68.9 329.95)"><g transform="matrix(1 0 0 1 0 0)"><image x="0" y="0" xlink:href="img_02.png" width="1866" height="16" /></g></g><g transform="matrix(0.32 0 0 0.3125 195.45 354.95)"><g transform="matrix(1 0 0 1 0 0)"><image x="0" y="0" xlink:href="img_04.png" width="1325" height="16" /></g></g><g transform="matrix(0.3199357 0 0 0.3125 68.9 379.95)"><g transform="matrix(1 0 0 1 0 0)"><image x="0" y="0" xlink:href="img_02.png" width="1866" height="16" /></g></g><g transform="matrix(0.3198606 0 0 0.3125 159.9 404.95)"><g transform="matrix(1 0 0 1 0 0)"><image x="0" y="0" xlink:href="img_05.png" width="1435" height="16" /></g></g><g transform="matrix(0.3199357 0 0 0.3125 68.9 429.95)"><g transform="matrix(1 0 0 1 0 0)"><image x="0" y="0" xlink:href="img_02.png" width="1866" height="16" /></g></g><g transform="matrix(0.3125 0 0 0.3125 -1 -1)"><g transform="matrix(1 0 0 1 0 0)"><image x="0" y="0" xlink:href="img_06.png" width="16" height="16" /></g></g><g transform="matrix(0.3197987 0 0 0.3125 194.9 479.2)"><g transform="matrix(1 0 0 1 0 0)"><image x="0" y="0" xlink:href="img_07.png" width="1490" height="16" /></g></g><g transform="matrix(0.3199357 0 0 0.3125 68.9 499.9)"><g transform="matrix(1 0 0 1 0 0)"><image x="0" y="0" xlink:href="img_08.png" width="1866" height="16" /></g></g><g transform="matrix(0.3199357 0 0 0.3125 68.9 519.9)"><g transform="matrix(1 0 0 1 0 0)"><image x="0" y="0" xlink:href="img_08.png" width="1866" height="16" /></g></g><g transform="matrix(0.3199357 0 0 0.3125 68.9 539.9)"><g transform="matrix(1 0 0 1 0 0)"><image x="0" y="0" xlink:href="img_08.png" width="1866" height="16" /></g></g><g transform="matrix(0.3199357 0 0 0.3125 68.9 559.9)"><g transform="matrix(1 0 0 1 0 0)"><image x="0" y="0" xlink:href="img_08.png" width="1866" height="16" /></g></g><g transform="matrix(0.3199357 0 0 0.3125 68.9 579.9)"><g transform="matrix(1 0 0 1 0 0)"><image x="0" y="0" xlink:href="img_08.png" width="1866" height="16" /></g></g><g transform="matrix(0.3199357 0 0 0.3125 68.9 815.75)"><g transform="matrix(1 0 0 1 0 0)"><image x="0" y="0" xlink:href="img_09.png" width="1866" height="16" /></g></g><g transform="matrix(0.3190661 0 0 0.3197279 345.9 1277.45)"></g><path id="146" transform="matrix(1 0 0 -1 0 841)" d="M427.9 234.4563L522.4 234.4563" stroke="#000000" stroke-width="0.525" fill="none" /><path id="185" transform="matrix(1 0 0 -1 0 841)" d="M70.9 209.4562L270.4 209.4562" stroke="#000000" stroke-width="0.525" fill="none" /><path id="186" transform="matrix(1 0 0 -1 0 841)" d="M480.4 209.4562L522.4 209.4562" stroke="#000000" stroke-width="0.525" fill="none" /><path id="220" transform="matrix(1 0 0 -1 0 841)" d="M70.9 184.4562L91.9 184.4562" stroke="#000000" stroke-width="0.525" fill="none" /><g clip-path="url(#2)"><g clip-path="url(#3)"></g></g><g clip-path="url(#4)"></g><g clip-path="url(#5)"><g clip-path="url(#6)"></g></g><g clip-path="url(#7)"><g clip-path="url(#8)"></g></g><g clip-path="url(#9)"><g clip-path="url(#10)"></g></g><g clip-path="url(#11)"><g clip-path="url(#12)"></g></g><g clip-path="url(#13)"><g clip-path="url(#14)"></g></g><g clip-path="url(#15)"><g clip-path="url(#16)"></g></g><g clip-path="url(#17)"><g clip-path="url(#18)"></g></g><g clip-path="url(#19)"><g clip-path="url(#20)"></g></g><g clip-path="url(#21)"></g><g clip-path="url(#22)"></g><g clip-path="url(#23)"></g><g clip-path="url(#24)"></g><g clip-path="url(#25)"></g><g clip-path="url(#26)"><g clip-path="url(#27)"></g></g><g clip-path="url(#28)"></g><g clip-path="url(#29)"></g><g clip-path="url(#30)"><g clip-path="url(#31)"></g></g><g clip-path="url(#32)"></g><g clip-path="url(#33)"></g><g clip-path="url(#34)"></g><g clip-path="url(#35)"><g clip-path="url(#36)"></g></g><g clip-path="url(#37)"><g clip-path="url(#38)"></g></g></g></g></svg>